# This file uses centimeters as units for non-parametric coordinates.

mtllib stone_post.mtl
g default
v -5.343519 14.310108 6.021552
v -4.864134 14.310108 6.500937
v -4.864134 14.789494 6.021552
v 4.864134 14.789494 6.021552
v 4.864135 14.310112 6.500937
v 5.343519 14.310110 6.021552
v -5.343519 14.310106 -6.021552
v -4.864135 14.789490 -6.021552
v -4.864134 14.310108 -6.500937
v 4.864134 14.310108 -6.500937
v 4.864134 14.789494 -6.021552
v 5.343519 14.310108 -6.021552
v -5.343519 -12.632576 6.021552
v -4.864134 -12.632576 6.500937
v 5.343519 -12.632576 6.021552
v 4.864134 -12.632576 6.500937
v -5.343519 -12.632576 -6.021552
v -4.864134 -12.632576 -6.500937
v 5.343519 -12.632576 -6.021552
v 4.864134 -12.632576 -6.500937
vt 0.256400 0.498311
vt 0.256400 0.001992
vt 0.478250 0.001992
vt 0.478250 0.498311
vt 0.247569 0.498311
vt 0.247569 0.001992
vt 0.487080 0.498311
vt 0.487080 0.001992
vt 0.256400 0.507142
vt 0.478250 0.507142
vt 0.010516 0.498311
vt 0.010516 0.001992
vt 0.232366 0.001992
vt 0.232366 0.498311
vt 0.001686 0.498311
vt 0.001686 0.001992
vt 0.241197 0.498311
vt 0.241197 0.001992
vt 0.232366 0.507142
vt 0.010516 0.507142
vt 0.684249 0.519350
vt 0.693080 0.510520
vt 0.872287 0.510520
vt 0.881118 0.519350
vt 0.881118 0.741200
vt 0.872287 0.750031
vt 0.693080 0.750031
vt 0.684249 0.741200
vt 0.499850 0.519350
vt 0.679058 0.519350
vt 0.679058 0.741200
vt 0.499850 0.741200
vt 0.499850 0.510520
vt 0.679058 0.510520
vt 0.499850 0.750031
vt 0.679058 0.750031
vt 0.493288 0.498311
vt 0.493288 0.001992
vt 0.672495 0.001992
vt 0.672495 0.498311
vt 0.861838 0.499715
vt 0.682630 0.499654
vt 0.682798 0.003335
vt 0.862006 0.003395
vn 0.000000 -1.000000 0.000000
vn 0.000000 -1.000000 0.000000
vn 0.000000 -1.000000 0.000000
vn 0.000000 -1.000000 0.000000
vn 0.000000 -1.000000 0.000000
vn 0.000000 -1.000000 0.000000
vn 0.000000 -1.000000 0.000000
vn 0.000000 -1.000000 0.000000
vn -0.707107 0.707107 -0.000000
vn -0.707106 0.707107 -0.000000
vn -0.707107 0.707107 -0.000000
vn -0.707106 0.707107 -0.000000
vn -0.707107 0.000000 0.707107
vn -0.707107 0.000000 0.707107
vn -0.707107 0.000000 0.707107
vn -0.707107 0.000000 0.707107
vn -0.000000 0.707108 0.707106
vn -0.000000 0.707108 0.707106
vn -0.000000 0.707108 0.707106
vn -0.000000 0.707108 0.707106
vn 0.707106 0.707108 -0.000000
vn 0.707106 0.707108 -0.000000
vn 0.707106 0.707108 -0.000000
vn 0.707106 0.707108 -0.000000
vn 0.707107 -0.000000 0.707107
vn 0.707107 -0.000000 0.707107
vn 0.707107 -0.000000 0.707107
vn 0.707107 -0.000000 0.707107
vn -0.707107 0.000000 -0.707107
vn -0.707107 0.000000 -0.707107
vn -0.707107 0.000000 -0.707107
vn -0.707107 0.000000 -0.707107
vn -0.000000 0.707109 -0.707105
vn -0.000000 0.707109 -0.707105
vn -0.000000 0.707109 -0.707105
vn -0.000000 0.707109 -0.707104
vn 0.707107 0.000000 -0.707107
vn 0.707107 0.000000 -0.707107
vn 0.707107 0.000000 -0.707107
vn 0.707107 0.000000 -0.707107
vn 0.000000 0.000000 1.000000
vn 0.000000 0.000000 1.000000
vn 0.000000 0.000000 1.000000
vn 0.000000 0.000000 1.000000
vn -0.000000 1.000000 -0.000000
vn -0.000000 1.000000 -0.000000
vn -0.000000 1.000000 -0.000000
vn -0.000000 1.000000 -0.000000
vn 0.000000 0.000000 -1.000000
vn 0.000000 0.000000 -1.000000
vn 0.000000 0.000000 -1.000000
vn 0.000000 0.000000 -1.000000
vn 1.000000 0.000000 0.000000
vn 1.000000 0.000000 0.000000
vn 1.000000 0.000000 0.000000
vn 1.000000 0.000000 0.000000
vn -1.000000 0.000000 0.000000
vn -1.000000 0.000000 0.000000
vn -1.000000 0.000000 0.000000
vn -1.000000 0.000000 0.000000
vn -0.577350 0.577350 0.577351
vn -0.577350 0.577350 0.577351
vn -0.577350 0.577350 0.577351
vn 0.577351 0.577353 0.577346
vn 0.577351 0.577353 0.577346
vn 0.577351 0.577353 0.577346
vn -0.577351 0.577352 -0.577348
vn -0.577351 0.577352 -0.577348
vn -0.577351 0.577352 -0.577348
vn 0.577350 0.577350 -0.577351
vn 0.577350 0.577350 -0.577351
vn 0.577350 0.577350 -0.577351
s off
g polySurface3 stone_wall
usemtl initialShadingGroup
f 17/21/1 18/22/2 20/23/3 19/24/4 15/25/5 16/26/6 14/27/7 13/28/8
f 1/14/9 3/19/10 8/20/11 7/11/12
f 2/17/13 1/14/14 13/13/15 14/18/16
f 3/29/17 2/33/18 5/34/19 4/30/20
f 4/9/21 6/1/22 12/4/23 11/10/24
f 6/1/25 5/5/26 16/6/27 15/2/28
f 7/11/29 9/15/30 18/16/31 17/12/32
f 9/35/33 8/32/34 11/31/35 10/36/36
f 10/7/37 12/4/38 19/3/39 20/8/40
f 2/37/41 14/38/42 16/39/43 5/40/44
f 3/29/45 4/30/46 11/31/47 8/32/48
f 9/41/49 10/42/50 20/43/51 18/44/52
f 6/1/53 15/2/54 19/3/55 12/4/56
f 7/11/57 17/12/58 13/13/59 1/14/60
f 1/14/61 2/17/62 3/19/63
f 4/9/64 5/5/65 6/1/66
f 7/11/67 8/20/68 9/15/69
f 10/7/70 11/10/71 12/4/72
