# File produced by Open Asset Import Library (http://www.assimp.sf.net)
# (assimp v3.1.202510665)

mtllib MT_Tomb1.mtl

# vertex positions
v -119.149010 49.416420 5.667673
v -120.739777 46.441063 5.667671
v -120.739777 46.441063 12.084776
v -119.149010 49.416416 12.084776
v -118.590446 52.926086 5.667673
v -118.590446 52.926086 12.084776
v -116.755829 52.926086 12.672548
v -114.649628 49.416420 12.672548
v -107.611794 49.416420 12.672548
v -107.611794 52.926086 12.672548
v -123.120544 44.453003 5.667671
v -123.120544 44.453003 12.084776
v -125.928856 22.355412 12.672548
v -107.611794 22.355412 12.672548
v -107.611794 37.640747 12.672548
v -125.928856 37.640747 12.672548
v -125.928856 43.754898 5.667671
v -125.928856 43.754898 12.084776
v -125.928856 37.640747 5.667671
v -125.928856 37.640747 12.084776
v -125.928856 37.640747 5.027683
v -107.611794 37.640747 5.027683
v -107.611794 22.355412 5.027683
v -125.928856 22.355412 5.027683
v -125.928856 7.070072 12.672548
v -107.611794 7.070072 12.672548
v -107.611794 7.961409 12.672548
v -125.928856 7.961407 12.672548
v -125.928856 22.355412 5.667671
v -125.928856 22.355412 12.084776
v -125.928856 7.961409 5.027683
v -107.611794 7.961407 5.027683
v -107.611794 7.070072 5.027683
v -125.928856 7.070072 5.027683
v -125.928856 7.070072 5.667673
v -107.611794 7.070072 5.667671
v -107.611794 7.070072 12.084776
v -125.928856 7.070072 12.084776
v -125.928856 7.961409 12.084776
v -125.928856 7.961407 5.667673
v -116.755829 52.926086 12.084776
v -116.755829 52.926086 5.667671
v -119.149010 49.416420 12.672548
v -118.590446 52.926086 12.672548
v -123.120544 44.453003 5.027683
v -125.928856 43.754898 5.027683
v -119.149010 49.416420 5.027683
v -114.649628 49.416420 5.027683
v -107.611794 37.689068 5.027683
v -107.611794 37.660145 5.027683
v -120.739777 46.441063 5.027683
v -123.120544 44.453003 12.672548
v -107.611794 37.660145 12.672548
v -120.739777 46.441063 12.672548
v -115.526855 58.566170 12.084776
v -115.526855 58.566170 5.667673
v -112.169296 62.762283 12.084776
v -112.169296 62.762283 5.667673
v -107.611794 64.288460 12.084776
v -107.611794 64.288460 5.667673
v -115.526855 58.566170 12.672548
v -107.611794 52.946678 12.672548
v -112.169296 62.762283 12.672548
v -107.611794 52.988274 12.672548
v -116.755829 52.926086 5.027683
v -115.526855 58.566170 5.027683
v -107.611794 52.946678 5.027683
v -107.611794 52.926086 5.027683
v -112.169296 62.762283 5.027683
v -107.611794 52.988274 5.027683
v -107.611794 64.288460 5.027683
v -107.611794 49.416420 5.027683
v -107.611794 64.288460 12.672548
v -94.483803 46.441063 5.667671
v -96.074585 49.416420 5.667673
v -96.074585 49.416416 12.084776
v -94.483803 46.441063 12.084776
v -96.633202 52.926086 5.667673
v -96.633202 52.926086 12.084776
v -98.467773 52.926086 12.672548
v -100.574020 49.416420 12.672548
v -92.103050 44.453003 5.667671
v -92.103050 44.453003 12.084776
v -89.294792 22.355412 12.672548
v -89.294792 37.640747 12.672548
v -89.294792 43.754898 5.667671
v -89.294792 43.754898 12.084776
v -89.294792 37.640747 5.667671
v -89.294792 37.640747 12.084776
v -89.294792 37.640747 5.027683
v -89.294792 22.355412 5.027683
v -89.294792 7.070072 12.672548
v -89.294792 7.961407 12.672548
v -89.294792 22.355412 5.667671
v -89.294792 22.355412 12.084776
v -89.294792 7.961409 5.027683
v -89.294792 7.070072 5.027683
v -89.294792 7.070072 5.667673
v -89.294792 7.070072 12.084776
v -89.294792 7.961409 5.667673
v -89.294792 7.961407 12.084776
v -98.467773 52.926086 12.084776
v -98.467773 52.926086 5.667671
v -96.074585 49.416420 12.672548
v -96.633202 52.926086 12.672548
v -94.483803 46.441063 5.027683
v -92.103050 44.453003 5.027683
v -100.574020 49.416420 5.027683
v -96.074585 49.416420 5.027683
v -89.294792 43.754898 12.672548
v -92.103050 44.453003 12.672548
v -99.696747 58.566170 12.084776
v -99.696747 58.566170 5.667673
v -103.054306 62.762283 12.084776
v -103.054306 62.762283 5.667673
v -99.696747 58.566170 12.672548
v -103.054306 62.762283 12.672548
v -98.467773 52.926086 5.027683
v -99.696747 58.566170 5.027683
v -103.054306 62.762283 5.027683
v -94.483803 46.441063 12.672548
v -125.928856 43.754898 12.672548
v -89.294792 43.754898 5.027683
v -118.590446 52.926086 5.027683
v -96.633202 52.926086 5.027683
v -107.611794 37.689068 12.672548

# UV coordinates
vt 0.374010 0.826840
vt 0.355614 0.827043
vt 0.358126 0.723331
vt 0.376522 0.723129
vt 0.392406 0.826638
vt 0.394919 0.722926
vt 0.694469 0.422014
vt 0.712456 0.398296
vt 0.772136 0.398614
vt 0.772009 0.422428
vt 0.337217 0.827245
vt 0.339730 0.723534
vt 0.617792 0.214172
vt 0.773116 0.215001
vt 0.772562 0.318714
vt 0.617238 0.317885
vt 0.318821 0.827448
vt 0.321334 0.723736
vt 0.287389 0.827794
vt 0.289902 0.724082
vt 0.546212 0.322751
vt 0.324758 0.326616
vt 0.322176 0.178747
vt 0.543631 0.174881
vt 0.618345 0.110458
vt 0.773670 0.111287
vt 0.773638 0.117335
vt 0.618313 0.116506
vt 0.208809 0.828659
vt 0.211322 0.724947
vt 0.541200 0.035634
vt 0.319746 0.039500
vt 0.319595 0.030877
vt 0.541050 0.027011
vt 0.130229 0.829524
vt 0.012546 0.830819
vt 0.015058 0.727107
vt 0.132742 0.725812
vt 0.137324 0.725761
vt 0.134812 0.829473
vt 0.406706 0.722796
vt 0.404193 0.826508
vt 0.674303 0.398092
vt 0.678912 0.421931
vt 0.513410 0.389245
vt 0.547245 0.381899
vt 0.466232 0.438099
vt 0.411834 0.439048
vt 0.324766 0.327084
vt 0.324761 0.326804
vt 0.484962 0.408980
vt 0.640805 0.364234
vt 0.772562 0.318846
vt 0.660921 0.377832
vt 0.436756 0.722466
vt 0.434244 0.826177
vt 0.467263 0.722130
vt 0.464751 0.825842
vt 0.497577 0.721796
vt 0.495065 0.825508
vt 0.704686 0.460338
vt 0.772008 0.422568
vt 0.733006 0.488962
vt 0.772006 0.422850
vt 0.437891 0.472556
vt 0.423985 0.527377
vt 0.327342 0.474685
vt 0.327339 0.474486
vt 0.384100 0.568679
vt 0.327349 0.475088
vt 0.329257 0.584405
vt 0.326746 0.440534
vt 0.771597 0.499523
vt 0.634516 0.823973
vt 0.616119 0.824176
vt 0.618632 0.720464
vt 0.637028 0.720262
vt 0.597723 0.824378
vt 0.600236 0.720666
vt 0.849548 0.422842
vt 0.831815 0.398933
vt 0.652912 0.823771
vt 0.655424 0.720059
vt 0.928440 0.215830
vt 0.927886 0.319544
vt 0.671308 0.823568
vt 0.673820 0.719857
vt 0.702740 0.823223
vt 0.705252 0.719510
vt 0.103304 0.330482
vt 0.100723 0.182612
vt 0.928994 0.112117
vt 0.928962 0.118165
vt 0.781319 0.822358
vt 0.783832 0.718646
vt 0.098292 0.043365
vt 0.098142 0.034743
vt 0.977583 0.820198
vt 0.859899 0.821493
vt 0.862412 0.717781
vt 0.980095 0.716486
vt 0.855317 0.821543
vt 0.857830 0.717831
vt 0.588449 0.720796
vt 0.585936 0.824508
vt 0.869969 0.399137
vt 0.865104 0.422925
vt 0.167525 0.414521
vt 0.138406 0.395791
vt 0.241659 0.442019
vt 0.187260 0.442968
vt 0.927665 0.361029
vt 0.903826 0.365639
vt 0.558398 0.721127
vt 0.555885 0.824839
vt 0.527891 0.721463
vt 0.525379 0.825175
vt 0.838922 0.461055
vt 0.810299 0.489374
vt 0.216787 0.476416
vt 0.232598 0.530718
vt 0.273899 0.570603
vt 0.883566 0.379020
vt 0.617016 0.359370
vt 0.104336 0.389630
vt 0.460071 0.472169
vt 0.194607 0.476803
vt 0.772561 0.319042
vt 0.336967 0.837589
vt 0.355363 0.837386
vt 0.318570 0.837791
vt 0.287138 0.838137
vt 0.208559 0.839002
vt 0.129979 0.839867
vt 0.134561 0.839816
vt 0.012295 0.841162
vt 0.859649 0.831836
vt 0.977332 0.830541
vt 0.855067 0.831887
vt 0.781069 0.832701
vt 0.702489 0.833566
vt 0.671057 0.833912
vt 0.652661 0.834114
vt 0.634265 0.834317
vt 0.615869 0.834519
vt 0.597472 0.834722
vt 0.585686 0.834852
vt 0.555635 0.835182
vt 0.525128 0.835518
vt 0.494814 0.835852
vt 0.464500 0.836185
vt 0.433993 0.836521
vt 0.403942 0.836852
vt 0.392155 0.836981
vt 0.373759 0.837184
vt 0.376753 0.713629
vt 0.395149 0.713427
vt 0.406936 0.713297
vt 0.436987 0.712966
vt 0.467494 0.712630
vt 0.497807 0.712297
vt 0.528122 0.711963
vt 0.558628 0.711627
vt 0.588679 0.711297
vt 0.600466 0.711167
vt 0.618862 0.710964
vt 0.637258 0.710762
vt 0.655655 0.710560
vt 0.674051 0.710357
vt 0.705483 0.710011
vt 0.784063 0.709146
vt 0.858060 0.708332
vt 0.862642 0.708281
vt 0.980325 0.706986
vt 0.015289 0.717607
vt 0.132972 0.716312
vt 0.137555 0.716262
vt 0.211552 0.715448
vt 0.290132 0.714582
vt 0.321564 0.714237
vt 0.339960 0.714034
vt 0.358356 0.713832

# vertex normals
vn -0.949224 0.314601 0.000000
vn -0.780807 0.624772 0.000000
vn -0.780807 0.624772 0.000000
vn -0.949224 0.314601 0.000000
vn -0.987571 0.157172 0.000000
vn -0.987571 0.157172 -0.000000
vn 0.000000 0.000000 1.000000
vn 0.000000 0.000000 1.000000
vn -0.459715 0.888067 0.000000
vn -0.459715 0.888067 0.000000
vn -0.000000 0.000000 1.000000
vn 0.000000 0.000000 1.000000
vn -0.000000 0.000000 1.000000
vn -0.241244 0.970465 0.000000
vn -0.241244 0.970465 0.000000
vn -1.000000 0.000000 0.000000
vn 0.000000 0.000000 -1.000000
vn -0.000000 0.000000 -1.000000
vn 0.000000 0.000000 -1.000000
vn -0.000000 0.000000 1.000000
vn 0.000000 0.000000 1.000000
vn -0.000000 0.000000 1.000000
vn 0.000000 -1.000000 0.000000
vn -1.000000 -0.000000 0.000000
vn -1.000000 -0.000001 0.000000
vn 0.000000 1.000000 0.000000
vn 0.000000 0.000000 1.000000
vn 0.000000 0.000000 -1.000000
vn 0.000000 0.000000 -1.000000
vn -0.000000 0.000000 -1.000000
vn -0.000000 0.000000 -1.000000
vn -0.000000 0.000000 -1.000000
vn -0.000000 0.000000 -1.000000
vn -0.000000 0.000000 -1.000000
vn 0.000000 0.000000 1.000000
vn 0.000000 0.000000 1.000000
vn -0.977073 0.212903 0.000000
vn -0.977073 0.212903 0.000000
vn -0.977073 0.212903 0.000000
vn -0.780809 0.624770 0.000000
vn -0.780809 0.624771 0.000000
vn -0.317540 0.948245 0.000000
vn 0.000000 1.000000 0.000000
vn 0.000000 1.000000 0.000000
vn -0.317540 0.948245 0.000000
vn 0.000000 0.000000 1.000000
vn 0.000000 0.000000 1.000000
vn -0.000000 0.000000 -1.000000
vn 0.000000 0.000000 -1.000000
vn -0.000000 0.000000 -1.000000
vn -0.000000 0.000000 -1.000000
vn 0.000000 0.000000 -1.000000
vn 0.000000 0.000000 -1.000000
vn 0.000000 0.000000 -1.000000
vn 0.000000 0.000000 1.000000
vn 0.780807 0.624772 0.000000
vn 0.949221 0.314610 0.000000
vn 0.949221 0.314610 0.000000
vn 0.780807 0.624772 0.000000
vn 0.987569 0.157187 0.000000
vn 0.987569 0.157187 0.000000
vn 0.459719 0.888065 0.000000
vn 0.459719 0.888065 0.000000
vn 0.000000 0.000000 1.000000
vn 0.241248 0.970464 0.000000
vn 0.241248 0.970464 0.000000
vn 1.000000 0.000000 0.000000
vn -0.000000 0.000000 -1.000000
vn 0.000000 0.000000 1.000000
vn 0.000000 0.000000 1.000000
vn 1.000000 -0.000000 0.000000
vn 1.000000 -0.000000 0.000000
vn -0.000000 0.000000 -1.000000
vn -0.000000 0.000000 1.000000
vn 0.977073 0.212903 0.000000
vn 0.977073 0.212903 0.000000
vn 0.977073 0.212903 0.000000
vn 0.780809 0.624770 0.000000
vn 0.780809 0.624770 0.000000
vn 0.317540 0.948245 0.000000
vn 0.317540 0.948245 0.000000
vn -0.000000 0.000000 -1.000000
vn 0.000000 0.000000 -1.000000
vn -0.000000 0.000000 1.000000
vn -0.000000 0.000000 -1.000000
vn 0.000000 0.000000 1.000000
vn -0.459714 0.888067 0.000000
vn -0.780807 0.624772 0.000000
vn -0.241243 0.970465 0.000000
vn -1.000000 -0.000013 0.000000
vn -1.000000 -0.000001 0.000000
vn 1.000000 -0.000000 0.000000
vn 1.000000 -0.000000 0.000000
vn 0.241248 0.970464 0.000000
vn 0.459719 0.888064 0.000000
vn 0.780808 0.624772 0.000000
vn 0.949221 0.314610 0.000000
vn 0.987569 0.157187 0.000000
vn 0.977073 0.212904 0.000000
vn 0.780808 0.624771 0.000000
vn 0.317541 0.948245 0.000000
vn -0.317540 0.948245 0.000000
vn -0.780807 0.624772 0.000000
vn -0.977073 0.212904 0.000000
vn -0.949224 0.314601 0.000000
vn -0.987571 0.157172 0.000000
vn -0.949224 0.314602 -0.000000
vn -0.987571 0.157172 -0.000001
vn -0.977073 0.212902 0.000000
vn -0.780809 0.624770 0.000000
vn -0.317540 0.948245 0.000000
vn 0.000000 1.000000 0.000000
vn 0.317541 0.948244 0.000000
vn 0.780808 0.624771 0.000000
vn 0.977073 0.212904 0.000000
vn 0.987569 0.157186 -0.000001
vn 0.949221 0.314609 -0.000000
vn 0.780807 0.624772 0.000000
vn 0.459719 0.888064 0.000000
vn 0.241248 0.970464 0.000000
vn -0.241243 0.970465 0.000000
vn -0.459715 0.888067 0.000000
vn -0.780807 0.624772 0.000000

# Mesh
g MT_Tomb1
usemtl lambert1
f 4/4/4 1/1/1 2/2/2
f 2/2/2 3/3/3 4/4/4
f 6/6/6 5/5/5 1/1/1
f 1/1/1 4/4/4 6/6/6
f 10/10/7 7/7/7 8/8/8
f 8/8/8 9/9/7 10/10/7
f 3/3/3 2/2/2 11/11/9
f 11/11/9 12/12/10 3/3/3
f 16/16/7 13/13/11 14/14/12
f 14/14/12 15/15/13 16/16/7
f 12/12/10 11/11/9 17/17/14
f 17/17/14 18/18/15 12/12/10
f 18/18/16 17/17/16 19/19/16
f 19/19/16 20/20/16 18/18/16
f 24/24/19 21/21/17 22/22/18
f 22/22/18 23/23/19 24/24/19
f 28/28/22 25/25/20 26/26/7
f 26/26/7 27/27/21 28/28/22
f 20/20/16 19/19/16 29/29/16
f 29/29/16 30/30/16 20/20/16
f 34/34/19 31/31/19 32/32/19
f 32/32/19 33/33/19 34/34/19
f 38/38/23 35/35/23 36/36/23
f 36/36/23 37/37/23 38/38/23
f 38/38/16 39/39/16 40/40/24
f 40/40/24 35/35/25 38/38/16
f 5/5/26 6/6/26 41/41/26
f 41/41/26 42/42/26 5/5/26
f 44/44/7 43/43/27 8/8/8
f 8/8/8 7/7/7 44/44/7
f 46/46/29 45/45/28 22/22/18
f 22/22/18 21/21/17 46/46/29
f 51/51/34 47/47/30 48/48/31
f 51/51/34 48/48/31 49/49/32
f 49/49/32 50/50/33 51/51/34
f 54/54/36 52/52/7 15/15/13
f 15/15/13 53/53/35 54/54/36
f 42/42/39 41/41/37 55/55/37
f 55/55/37 56/56/38 42/42/39
f 56/56/41 55/55/40 57/57/40
f 57/57/40 58/58/41 56/56/41
f 58/58/45 57/57/42 59/59/43
f 59/59/43 60/60/44 58/58/45
f 62/62/7 61/61/7 7/7/7
f 7/7/7 10/10/7 62/62/7
f 64/64/47 63/63/46 61/61/7
f 61/61/7 62/62/7 64/64/47
f 68/68/51 65/65/48 66/66/49
f 66/66/49 67/67/50 68/68/51
f 67/67/50 66/66/49 69/69/52
f 69/69/52 70/70/53 67/67/50
f 69/69/52 71/71/54 70/70/53
f 48/48/31 72/72/19 49/49/32
f 64/64/47 73/73/55 63/63/46
f 77/77/59 74/74/56 75/75/57
f 75/75/57 76/76/58 77/77/59
f 76/76/58 75/75/57 78/78/60
f 78/78/60 79/79/61 76/76/58
f 81/81/7 80/80/7 10/10/7
f 10/10/7 9/9/7 81/81/7
f 83/83/63 82/82/62 74/74/56
f 74/74/56 77/77/59 83/83/63
f 14/14/12 84/84/64 85/85/7
f 85/85/7 15/15/13 14/14/12
f 87/87/66 86/86/65 82/82/62
f 82/82/62 83/83/63 87/87/66
f 89/89/67 88/88/67 86/86/67
f 86/86/67 87/87/67 89/89/67
f 22/22/18 90/90/68 91/91/19
f 91/91/19 23/23/19 22/22/18
f 26/26/7 92/92/69 93/93/70
f 93/93/70 27/27/21 26/26/7
f 95/95/67 94/94/71 88/88/67
f 88/88/67 89/89/67 95/95/67
f 33/33/19 32/32/19 96/96/19
f 96/96/19 97/97/19 33/33/19
f 37/101/23 36/98/23 98/99/23
f 98/99/23 99/100/23 37/101/23
f 99/100/67 98/99/67 100/102/72
f 100/102/72 101/103/67 99/100/67
f 103/105/26 102/104/26 79/79/26
f 79/79/26 78/78/26 103/105/26
f 80/80/7 81/81/7 104/106/7
f 104/106/7 105/107/7 80/80/7
f 50/50/33 106/108/19 107/109/73
f 107/109/73 22/22/18 50/50/33
f 49/49/32 108/110/19 109/111/19
f 49/49/32 109/111/19 106/108/19
f 106/108/19 50/50/33 49/49/32
f 15/15/13 85/85/7 110/112/7
f 110/112/7 111/113/74 15/15/13
f 113/115/77 112/114/75 102/104/75
f 102/104/75 103/105/76 113/115/77
f 115/117/79 114/116/78 112/114/78
f 112/114/78 113/115/79 115/117/79
f 60/60/44 59/59/43 114/116/80
f 114/116/80 115/117/81 60/60/44
f 80/80/7 116/118/7 62/62/7
f 62/62/7 10/10/7 80/80/7
f 116/118/7 117/119/7 64/64/47
f 64/64/47 62/62/7 116/118/7
f 119/121/82 118/120/19 68/68/51
f 68/68/51 67/67/50 119/121/82
f 120/122/83 119/121/82 67/67/50
f 67/67/50 70/70/53 120/122/83
f 120/122/83 70/70/53 71/71/54
f 72/72/19 108/110/19 49/49/32
f 64/64/47 117/119/7 73/73/55
f 53/53/35 15/15/13 111/113/74
f 111/113/74 121/123/84 53/53/35
f 122/124/7 16/16/7 15/15/13
f 15/15/13 52/52/7 122/124/7
f 90/90/68 22/22/18 107/109/73
f 107/109/73 123/125/85 90/90/68
f 45/45/28 51/51/34 50/50/33
f 50/50/33 22/22/18 45/45/28
f 47/47/30 124/126/19 65/65/48
f 65/65/48 48/48/31 47/47/30
f 65/65/48 68/68/51 72/72/19
f 72/72/19 48/48/31 65/65/48
f 72/72/19 68/68/51 118/120/19
f 118/120/19 108/110/19 72/72/19
f 118/120/19 125/127/19 109/111/19
f 109/111/19 108/110/19 118/120/19
f 43/43/27 54/54/36 53/53/35
f 43/43/27 53/53/35 126/128/86
f 126/128/86 8/8/8 43/43/27
f 9/9/7 8/8/8 126/128/86
f 81/81/7 9/9/7 126/128/86
f 53/53/35 121/123/84 104/106/7
f 53/53/35 104/106/7 81/81/7
f 81/81/7 126/128/86 53/53/35
f 51/130/88 45/129/87 11/11/9
f 11/11/9 2/2/2 51/130/88
f 45/129/87 46/131/89 17/17/14
f 17/17/14 11/11/9 45/129/87
f 17/17/16 46/131/16 21/132/16
f 21/132/16 19/19/16 17/17/16
f 21/132/16 24/133/16 29/29/16
f 29/29/16 19/19/16 21/132/16
f 31/135/91 34/134/90 35/35/25
f 35/35/25 40/40/24 31/135/91
f 35/35/23 34/134/23 33/136/23
f 33/136/23 36/36/23 35/35/23
f 33/138/23 97/137/23 98/99/23
f 98/99/23 36/98/23 33/138/23
f 98/99/67 97/137/67 96/139/92
f 96/139/92 100/102/72 98/99/67
f 94/94/71 91/140/93 90/141/67
f 90/141/67 88/88/67 94/94/71
f 90/141/67 123/142/67 86/86/67
f 86/86/67 88/88/67 90/141/67
f 86/86/65 123/142/94 107/143/95
f 107/143/95 82/82/62 86/86/65
f 82/82/62 107/143/95 106/144/96
f 106/144/96 74/74/56 82/82/62
f 74/74/56 106/144/96 109/145/97
f 109/145/97 75/75/57 74/74/56
f 75/75/57 109/145/97 125/146/98
f 125/146/98 78/78/60 75/75/57
f 118/147/26 103/105/26 78/78/26
f 78/78/26 125/146/26 118/147/26
f 119/148/99 113/115/77 103/105/76
f 103/105/76 118/147/99 119/148/99
f 120/149/100 115/117/79 113/115/79
f 113/115/79 119/148/100 120/149/100
f 71/150/26 60/60/44 115/117/81
f 115/117/81 120/149/101 71/150/26
f 69/151/102 58/58/45 60/60/44
f 60/60/44 71/150/26 69/151/102
f 66/152/103 56/56/41 58/58/41
f 58/58/41 69/151/103 66/152/103
f 65/153/104 42/42/39 56/56/38
f 56/56/38 66/152/104 65/153/104
f 124/154/26 5/5/26 42/42/26
f 42/42/26 65/153/26 124/154/26
f 124/154/106 47/155/105 1/1/1
f 1/1/1 5/5/5 124/154/106
f 47/155/105 51/130/88 2/2/2
f 2/2/2 1/1/1 47/155/105
f 44/157/108 6/6/6 4/4/4
f 4/4/4 43/156/107 44/157/108
f 6/6/26 44/157/26 7/158/26
f 7/158/26 41/41/26 6/6/26
f 41/41/37 7/158/109 61/159/109
f 61/159/109 55/55/37 41/41/37
f 55/55/40 61/159/110 63/160/110
f 63/160/110 57/57/40 55/55/40
f 57/57/42 63/160/111 73/161/112
f 73/161/112 59/59/43 57/57/42
f 73/161/112 117/162/113 114/116/80
f 114/116/80 59/59/43 73/161/112
f 117/162/114 116/163/114 112/114/78
f 112/114/78 114/116/78 117/162/114
f 116/163/115 80/164/115 102/104/75
f 102/104/75 112/114/75 116/163/115
f 80/164/26 105/165/26 79/79/26
f 79/79/26 102/104/26 80/164/26
f 104/166/117 76/76/58 79/79/61
f 79/79/61 105/165/116 104/166/117
f 121/167/118 77/77/59 76/76/58
f 76/76/58 104/166/117 121/167/118
f 111/168/119 83/83/63 77/77/59
f 77/77/59 121/167/118 111/168/119
f 110/169/120 87/87/66 83/83/63
f 83/83/63 111/168/119 110/169/120
f 85/170/67 89/89/67 87/87/67
f 87/87/67 110/169/67 85/170/67
f 84/171/67 95/95/67 89/89/67
f 89/89/67 85/170/67 84/171/67
f 92/173/67 99/100/67 101/103/67
f 101/103/67 93/172/67 92/173/67
f 26/174/23 37/101/23 99/100/23
f 99/100/23 92/173/23 26/174/23
f 25/176/23 38/38/23 37/37/23
f 37/37/23 26/175/23 25/176/23
f 25/176/16 28/177/16 39/39/16
f 39/39/16 38/38/16 25/176/16
f 16/179/16 20/20/16 30/30/16
f 30/30/16 13/178/16 16/179/16
f 122/180/16 18/18/16 20/20/16
f 20/20/16 16/179/16 122/180/16
f 52/181/122 12/12/10 18/18/15
f 18/18/15 122/180/121 52/181/122
f 54/182/123 3/3/3 12/12/10
f 12/12/10 52/181/122 54/182/123
f 43/156/107 4/4/4 3/3/3
f 3/3/3 54/182/123 43/156/107
f 13/178/16 30/30/16 39/39/16
f 39/39/16 28/177/16 13/178/16
f 30/30/16 29/29/16 40/40/24
f 40/40/24 39/39/16 30/30/16
f 24/133/16 31/135/91 40/40/24
f 40/40/24 29/29/16 24/133/16
f 31/31/19 24/24/19 23/23/19
f 23/23/19 32/32/19 31/31/19
f 23/23/19 91/91/19 96/96/19
f 96/96/19 32/32/19 23/23/19
f 94/94/71 100/102/72 96/139/92
f 96/139/92 91/140/93 94/94/71
f 95/95/67 101/103/67 100/102/72
f 100/102/72 94/94/71 95/95/67
f 84/171/67 93/172/67 101/103/67
f 101/103/67 95/95/67 84/171/67
f 14/14/12 27/27/21 93/93/70
f 93/93/70 84/84/64 14/14/12
f 13/13/11 28/28/22 27/27/21
f 27/27/21 14/14/12 13/13/11
