# This file uses centimeters as units for non-parametric coordinates.

mtllib mausoleum inside_2.mtl
g default
v 708.216572 -50.084665 7.500000
v 843.216572 -50.084665 7.500000
v 708.216572 124.915335 7.500000
v 843.216572 124.915335 7.500000
v 708.216572 124.915335 -7.500000
v 843.216572 124.915335 -7.500000
v 708.216572 -50.084665 -7.500000
v 843.216572 -50.084665 -7.500000
v 708.216572 8.608766 7.500000
v 843.216572 8.608766 7.500000
v 843.216572 8.608758 -7.500000
v 708.216572 8.608758 -7.500000
v 708.216572 1.015655 7.500000
v 843.216572 1.015655 7.500000
v 843.216572 1.015648 -7.500000
v 708.216572 1.015648 -7.500000
v 843.216572 5.107838 -7.500000
v 843.216572 5.107848 7.500000
v 708.216572 5.107848 7.500000
v 708.216572 5.107838 -7.500000
v 843.216572 5.107848 11.891652
v 708.216572 5.107848 11.891652
v 708.216572 2.065827 11.891652
v 708.216572 1.015655 10.841483
v 708.216572 1.156351 11.366568
v 708.216572 1.540740 11.750958
v 843.216572 2.065827 11.891652
v 843.216572 1.540740 11.750958
v 843.216572 1.156351 11.366568
v 843.216572 1.015655 10.841483
v 843.216572 8.468070 11.366568
v 843.216572 8.083681 11.750958
v 843.216572 7.558594 11.891652
v 843.216572 8.608766 10.841483
v 708.216572 7.558594 11.891652
v 708.216572 8.083681 11.750958
v 708.216572 8.468070 11.366568
v 708.216572 8.608766 10.841483
v 721.713855 20.237055 3.992537
v 829.719288 20.237055 3.992537
v 829.719288 113.287044 3.992537
v 721.713855 113.287044 3.992537
v 721.713867 -40.777965 4.011191
v 829.719240 -40.777965 4.011191
v 829.719240 -8.291047 4.011191
v 721.713867 -8.291047 4.011191
vt 0.099337 0.292142
vt 0.099337 0.001927
vt 0.292221 0.001927
vt 0.292221 0.292142
vt 0.093525 0.292142
vt 0.093525 0.001927
vt 0.086744 0.292142
vt 0.086744 0.001927
vt 0.099101 0.366957
vt 0.098465 0.374392
vt 0.097594 0.377117
vt 0.093525 0.377117
vt 0.099337 0.356798
vt 0.001994 0.292142
vt 0.001994 0.001927
vt 0.088482 0.377117
vt 0.087616 0.374392
vt 0.086974 0.366957
vt 0.086744 0.356798
vt 0.395764 0.377118
vt 0.395764 0.086897
vt 0.588647 0.086897
vt 0.588647 0.377118
vt 0.389958 0.377118
vt 0.389958 0.086897
vt 0.383174 0.377118
vt 0.383174 0.086897
vt 0.389958 0.001927
vt 0.394023 0.001927
vt 0.394895 0.004650
vt 0.395531 0.012087
vt 0.395764 0.022246
vt 0.298426 0.377118
vt 0.298426 0.086897
vt 0.384911 0.001927
vt 0.383174 0.022246
vt 0.383404 0.012087
vt 0.384043 0.004650
vt 0.366291 0.675323
vt 0.366291 0.868207
vt 0.298428 0.848923
vt 0.298428 0.694608
vt 0.372491 0.868207
vt 0.372491 0.675323
vt 0.440349 0.694608
vt 0.440349 0.848923
vt 0.514050 0.675322
vt 0.514050 0.760068
vt 0.446549 0.744633
vt 0.446549 0.690756
vt 0.520607 0.760068
vt 0.520607 0.675322
vt 0.588108 0.690756
vt 0.588108 0.744633
vt 0.596618 0.292156
vt 0.596618 0.001929
vt 0.886833 0.001929
vt 0.886833 0.292156
vt 0.411431 0.381108
vt 0.701652 0.381108
vt 0.701652 0.671329
vt 0.411431 0.671329
vt 0.305082 0.671332
vt 0.305082 0.381111
vt 0.369734 0.381111
vt 0.369734 0.671332
vt 0.237580 0.642316
vt 0.237580 0.410127
vt 0.379894 0.671332
vt 0.379894 0.381111
vt 0.387329 0.671332
vt 0.387329 0.381111
vt 0.390053 0.671332
vt 0.390053 0.381111
vt 0.163587 0.381108
vt 0.163587 0.671335
vt 0.098932 0.671335
vt 0.098932 0.381108
vt 0.231446 0.410127
vt 0.231446 0.642316
vt 0.088772 0.381108
vt 0.088772 0.671335
vt 0.081337 0.381108
vt 0.081337 0.671335
vt 0.078613 0.381108
vt 0.078613 0.671335
vt 0.072477 0.381105
vt 0.072477 0.671326
vt 0.004614 0.642310
vt 0.004614 0.410121
vt 0.001992 0.965546
vt 0.001992 0.675319
vt 0.069493 0.704338
vt 0.069493 0.936527
vt 0.076247 0.907520
vt 0.076247 0.675331
vt 0.230562 0.675331
vt 0.230562 0.907520
vt 0.707787 0.296152
vt 0.998008 0.296152
vt 0.998008 0.489035
vt 0.707787 0.489035
vt 0.998008 0.494847
vt 0.707787 0.494847
vt 0.998008 0.501628
vt 0.707787 0.501628
vt 0.998008 0.586379
vt 0.707787 0.586379
vt 0.396189 0.671330
vt 0.396189 0.381109
vt 0.401234 0.381109
vt 0.401234 0.671330
vt 0.405297 0.381109
vt 0.405297 0.671330
vt 0.238010 0.907512
vt 0.238010 0.675323
vt 0.291888 0.675323
vt 0.291888 0.907512
vn 0.000000 0.000000 1.000000
vn 0.000000 0.000000 1.000000
vn 0.000000 0.000000 1.000000
vn 0.000000 0.000000 1.000000
vn 0.000000 1.000000 0.000000
vn 0.000000 1.000000 0.000000
vn 0.000000 1.000000 0.000000
vn 0.000000 1.000000 0.000000
vn 0.000000 0.000000 -1.000000
vn 0.000000 0.000000 -1.000000
vn 0.000000 0.000000 -1.000000
vn 0.000000 0.000000 -1.000000
vn 0.000000 -1.000000 0.000000
vn 0.000000 -1.000000 0.000000
vn 0.000000 -1.000000 0.000000
vn 0.000000 -1.000000 0.000000
vn 1.000000 0.000000 0.000000
vn 1.000000 0.000000 0.000000
vn 1.000000 0.000000 0.000000
vn 1.000000 0.000000 0.000000
vn -1.000000 0.000000 0.000000
vn -1.000000 0.000000 0.000000
vn -1.000000 0.000000 0.000000
vn -1.000000 0.000000 0.000000
vn 0.000000 -0.039411 0.999223
vn 0.000000 -0.039411 0.999223
vn 0.000000 0.000000 1.000000
vn 0.000000 0.000000 1.000000
vn 1.000000 0.000000 0.000000
vn 1.000000 0.000000 0.000000
vn 1.000000 0.000000 0.000000
vn 1.000000 0.000000 0.000000
vn 0.000000 0.000000 -1.000000
vn 0.000000 0.000000 -1.000000
vn 0.000000 0.000000 -1.000000
vn 0.000000 0.000000 -1.000000
vn -1.000000 0.000000 0.000000
vn -1.000000 0.000000 0.000000
vn -1.000000 0.000000 0.000000
vn -1.000000 0.000000 0.000000
vn 0.000000 0.000000 1.000000
vn 0.000000 0.000000 1.000000
vn 0.000000 0.000000 1.000000
vn 0.000000 0.000000 1.000000
vn 1.000000 0.000000 0.000000
vn 1.000000 0.000000 0.000000
vn 0.000000 0.000000 -1.000000
vn 0.000000 0.000000 -1.000000
vn -1.000000 0.000000 0.000000
vn -1.000000 0.000000 0.000000
vn 0.000000 0.047226 0.998884
vn 0.000000 0.047226 0.998884
vn 0.000000 -1.000000 0.000000
vn 0.000000 -1.000000 0.000000
vn 0.000000 -0.999339 0.036364
vn 0.000000 -0.999339 0.036364
vn 0.000000 1.000000 0.000000
vn 0.000000 1.000000 0.000000
vn 0.000000 0.999339 0.036364
vn 0.000000 0.999339 0.036364
vn 0.000000 -0.499999 0.866026
vn 0.000000 -0.499999 0.866026
vn 0.000000 -0.707108 0.707105
vn 0.000000 -0.707108 0.707105
vn 0.000000 -0.965926 0.258819
vn 0.000000 -0.965926 0.258819
vn 0.000000 0.499999 0.866026
vn 0.000000 0.499999 0.866026
vn 0.000000 0.707108 0.707105
vn 0.000000 0.707108 0.707105
vn 0.000000 0.965926 0.258819
vn 0.000000 0.965926 0.258819
vn -1.000000 0.000000 0.000000
vn -1.000000 0.000000 0.000000
vn -1.000000 0.000000 0.000000
vn -1.000000 0.000000 0.000000
vn -1.000000 0.000000 0.000000
vn 1.000000 0.000000 0.000000
vn 1.000000 0.000000 0.000000
vn 1.000000 0.000000 0.000000
vn 1.000000 0.000000 0.000000
vn 1.000000 0.000000 0.000000
vn 1.000000 0.000000 0.000000
vn 1.000000 0.000000 0.000000
vn 1.000000 0.000000 0.000000
vn 1.000000 0.000000 0.000000
vn -1.000000 0.000000 0.000000
vn -1.000000 0.000000 0.000000
vn -1.000000 0.000000 0.000000
vn -1.000000 0.000000 0.000000
vn 0.000000 0.288781 0.957395
vn 0.000000 0.288781 0.957395
vn 0.000000 0.288781 0.957395
vn 0.000000 0.288781 0.957395
vn -0.251511 0.000000 0.967854
vn -0.251511 0.000000 0.967854
vn -0.251511 0.000000 0.967854
vn -0.251511 0.000000 0.967854
vn 0.000000 -0.288781 0.957395
vn 0.000000 -0.288781 0.957395
vn 0.000000 -0.288781 0.957395
vn 0.000000 -0.288781 0.957395
vn 0.251511 0.000000 0.967854
vn 0.251511 0.000000 0.967854
vn 0.251511 0.000000 0.967854
vn 0.251511 0.000000 0.967854
vn 0.000000 0.351017 0.936369
vn 0.000000 0.351017 0.936369
vn 0.000000 0.351017 0.936369
vn 0.000000 0.351017 0.936369
vn -0.250256 0.000000 0.968180
vn -0.250256 0.000000 0.968180
vn -0.250256 0.000000 0.968180
vn -0.250256 0.000000 0.968180
vn 0.000000 -0.351017 0.936369
vn 0.000000 -0.351017 0.936369
vn 0.000000 -0.351017 0.936369
vn 0.000000 -0.351017 0.936369
vn 0.250257 0.000000 0.968179
vn 0.250257 0.000000 0.968179
vn 0.250257 0.000000 0.968179
vn 0.250257 0.000000 0.968179
s off
g royalMausoleum_interior
usemtl initialShadingGroup
f 39/95/1 40/96/2 41/97/3 42/98/4
f 3/55/5 4/56/6 6/57/7 5/58/8
s 1
f 5/99/9 6/100/10 11/101/11 12/102/12
s off
f 7/59/13 8/60/14 2/61/15 1/62/16
s 2
f 10/1/17 11/2/18 6/3/19 4/4/20
s 3
f 12/20/21 9/21/22 3/22/23 5/23/24
s 4
f 23/109/25 27/110/26 21/111/27 22/112/28
s 2
f 14/7/29 15/8/30 17/6/31 18/5/32
s 1
f 20/104/33 17/103/34 15/105/35 16/106/36
s 3
f 16/26/37 13/27/38 19/25/39 20/24/40
s off
f 43/115/41 44/116/42 45/117/43 46/118/44
s 2
f 2/14/45 8/15/46 15/8/30 14/7/29
s 1
f 16/106/36 15/105/35 8/107/47 7/108/48
s 3
f 7/33/49 1/34/50 13/27/38 16/26/37
s 2
f 18/5/32 17/6/31 11/2/18 10/1/17
s 4
f 22/112/28 21/111/27 33/113/51 35/114/52
s 3
f 20/24/40 19/25/39 9/21/22 12/20/21
s 1
f 12/102/12 11/101/11 17/103/34 20/104/33
s 7
f 13/63/53 14/64/54 30/65/55 24/66/56
s 8
f 10/75/57 9/76/58 38/77/59 34/78/60
s 4
f 23/73/25 26/71/61 28/72/62 27/74/26
f 26/71/61 25/69/63 29/70/64 28/72/62
s 7
f 25/69/65 24/66/56 30/65/55 29/70/66
s 4
f 33/85/51 32/83/67 36/84/68 35/86/52
f 32/83/67 31/81/69 37/82/70 36/84/68
s 8
f 31/81/71 34/78/60 38/77/59 37/82/72
s 3
f 23/35/73 22/28/74 19/25/39 13/27/38 24/36/75 25/37/76 26/38/77
s 2
f 14/7/29 18/5/32 21/12/78 27/16/79 28/17/80 29/18/81 30/19/82
f 31/9/83 32/10/84 33/11/85 21/12/78 18/5/32 10/1/17 34/13/86
s 3
f 9/21/22 19/25/39 22/28/74 35/29/87 36/30/88 37/31/89 38/32/90
s off
f 9/76/91 10/75/92 40/79/93 39/80/94
f 10/39/95 4/40/96 41/41/97 40/42/98
f 4/87/99 3/88/100 42/89/101 41/90/102
f 3/43/103 9/44/104 39/45/105 42/46/106
f 1/91/107 2/92/108 44/93/109 43/94/110
f 2/47/111 14/48/112 45/49/113 44/50/114
f 14/64/115 13/63/116 46/67/117 45/68/118
f 13/51/119 1/52/120 43/53/121 46/54/122
