# File produced by Open Asset Import Library (http://www.assimp.sf.net)
# (assimp v3.1.202510665)

mtllib tomb3.mtl

# vertex positions
v 15.418741 34.332550 15.096359
v 7.267880 34.332550 15.096359
v 7.363832 9.536579 15.236365
v 16.243029 9.536573 15.236365
v 15.418741 34.332550 12.936454
v 16.243029 9.536579 13.003988
v 16.243029 9.536562 8.382865
v 15.418741 34.332550 8.465365
v -15.418741 34.332550 8.465365
v -16.243029 9.536566 8.382865
v -16.243029 9.536566 13.003988
v -15.418741 34.332550 12.936454
v 4.460761 9.536579 15.236365
v 4.255821 34.332550 15.096359
v -3.297952 34.332550 15.096359
v -4.086771 9.536579 15.236365
v 14.239033 43.410515 15.245015
v 7.207138 43.748524 15.245015
v 7.229722 40.237576 15.190130
v 14.976188 40.289391 15.213245
v -2.998582 43.756092 15.245015
v -3.112540 40.168777 15.188423
v 4.202473 40.217430 15.189194
v 4.170393 43.756092 15.245015
v 4.149559 48.533653 6.602862
v -2.843480 48.422897 6.602862
v -2.769864 50.831776 6.602862
v 4.119662 50.984798 6.602862
v 7.173906 51.052635 6.602862
v 7.185147 48.581734 6.602862
v -15.418741 34.332546 6.751520
v -6.402713 34.332546 6.751520
v -7.216730 9.536566 6.611511
v -16.243029 9.536566 6.611512
v -14.029102 43.192631 6.602862
v -6.079606 43.729515 6.602862
v -6.202778 40.144535 6.658296
v -14.844722 40.091087 6.635432
v 4.207836 43.756088 6.602862
v 4.252103 40.213924 6.658741
v -3.096408 40.164963 6.659513
v -2.986097 43.756088 6.602862
v 4.325589 34.332546 6.751520
v 4.625420 9.536566 6.611512
v -4.031956 9.536568 6.611512
v -3.275565 34.332546 6.751520
v -16.243029 9.536573 15.236365
v -15.418741 34.332550 15.096359
v 16.243029 9.536566 6.611512
v 15.418741 34.332546 6.751520
v 16.336145 8.004738 6.602862
v 16.336145 8.004738 8.377769
v 7.369758 8.004738 8.377769
v 7.369758 8.004738 6.602862
v 4.643940 8.004736 6.602862
v 4.608926 8.004738 8.377769
v -4.085681 8.004738 8.377769
v -4.078680 8.004736 6.602862
v 16.336145 8.004744 13.008160
v 7.369760 8.004744 13.008161
v -4.103955 8.004744 13.008161
v 4.517559 8.004744 13.008161
v 16.336145 8.004749 15.245015
v 7.369760 8.004749 15.245015
v 4.473428 8.004749 15.245015
v -4.112781 8.004749 15.245015
v 7.362906 9.536566 6.611512
v 7.323221 9.536566 6.611512
v -7.267016 8.004738 6.602862
v -16.336145 8.004738 6.602862
v -16.336145 8.004738 8.377769
v -16.336145 8.004744 13.008160
v -16.336145 8.004749 15.245015
v -9.657536 50.678795 6.602862
v -5.845813 50.763454 6.602862
v -5.925231 48.374084 6.602862
v -11.787444 48.281235 6.602862
v -2.678675 53.815712 15.245015
v -2.773570 50.831699 15.245015
v 4.109127 50.984562 15.245015
v 4.085131 53.815712 15.245015
v 7.165396 52.923092 15.245015
v 7.173907 51.052635 15.245015
v 10.021717 51.115887 15.245015
v -11.787444 48.281235 15.245015
v -9.657536 50.678795 15.245015
v -9.657536 50.678795 13.008160
v -11.787444 48.281235 13.008160
v -9.657536 50.678795 8.377769
v -11.787444 48.281235 8.377769
v 12.083282 48.659309 15.245015
v 12.083278 48.659309 13.008160
v 10.021714 51.115887 13.008160
v 12.083282 48.659309 8.377769
v 10.021717 51.115887 8.377769
v 7.165396 52.923092 6.602862
v 4.085131 53.815712 6.602862
v 4.085131 53.815712 8.377769
v 7.165396 52.923092 8.377769
v 4.085131 53.815712 13.008160
v 7.165396 52.923092 13.008160
v -2.678675 53.815712 6.602862
v -5.772437 52.971054 6.602862
v -5.772438 52.971054 8.377769
v -2.678675 53.815712 8.377769
v -5.772437 52.971054 13.008160
v -2.678675 53.815712 13.008160
v 14.976188 40.289391 6.634634
v 14.239033 43.410515 6.602862
v 14.239014 43.410561 8.377769
v 14.976188 40.289444 8.396492
v 14.239021 43.410542 13.008160
v 14.976188 40.289425 12.992834
v -14.844722 40.091087 15.212444
v -14.029102 43.192631 15.245015
v -14.029090 43.192665 13.008160
v -14.844718 40.091125 12.992451
v -14.029081 43.192680 8.377769
v -14.844718 40.091145 8.396963
v -5.772437 52.971054 15.245015
v 12.083282 48.659309 6.602862
v 10.021717 51.115887 6.602862
v -5.835314 50.763687 15.245015
v 7.207134 43.748520 6.602862
v 7.223866 40.233849 6.657738
v 7.251974 34.332546 6.751520
v 7.327749 9.536579 15.236365
v -6.134980 40.148689 15.189119
v -6.035597 43.732491 15.245015
v -6.296173 34.332550 15.096359
v -7.009252 9.536579 15.236365
v -7.053304 8.004749 15.245015
v -7.122917 8.004744 13.008161
v -7.267016 8.004738 8.377769
v -5.903372 48.374428 15.245015
v -2.850176 48.422783 15.245015
v 4.129903 48.533348 15.245015
v 7.185149 48.581734 15.245015

# UV coordinates
vt 0.980825 0.779393
vt 0.883981 0.782111
vt 0.878197 0.534445
vt 0.983693 0.531493
vt 0.393772 0.610000
vt 0.395621 0.259563
vt 0.510567 0.254836
vt 0.504986 0.605426
vt 0.106420 0.604030
vt 0.107208 0.332958
vt 0.234333 0.329985
vt 0.229418 0.601153
vt 0.843705 0.535410
vt 0.848193 0.783112
vt 0.758442 0.785621
vt 0.742152 0.538247
vt 0.969353 0.870815
vt 0.885897 0.876505
vt 0.885183 0.841311
vt 0.977249 0.839369
vt 0.764639 0.879969
vt 0.762279 0.844053
vt 0.849208 0.842111
vt 0.849818 0.877587
vt 0.747109 0.439292
vt 0.831756 0.434912
vt 0.831805 0.459456
vt 0.748430 0.464217
vt 0.711468 0.466330
vt 0.710366 0.441195
vt 0.978536 0.285292
vt 0.869343 0.289500
vt 0.869500 0.036701
vt 0.978816 0.032498
vt 0.965187 0.376521
vt 0.869119 0.385656
vt 0.869204 0.348979
vt 0.973860 0.344534
vt 0.744535 0.390709
vt 0.742608 0.354543
vt 0.831589 0.350624
vt 0.831662 0.387363
vt 0.739411 0.294492
vt 0.726085 0.042212
vt 0.830930 0.038184
vt 0.831470 0.290956
vt 0.340093 0.261846
vt 0.340047 0.612209
vt 0.295745 0.328549
vt 0.288837 0.599763
vt 0.554628 0.253024
vt 0.547617 0.603673
vt 0.058478 0.334097
vt 0.059273 0.605132
vt 0.555061 0.231322
vt 0.510912 0.233138
vt 0.512430 0.082387
vt 0.556579 0.080571
vt 0.061506 0.044474
vt 0.110328 0.043788
vt 0.109053 0.156862
vt 0.060227 0.157913
vt 0.395736 0.237874
vt 0.397253 0.087124
vt 0.236431 0.154121
vt 0.237695 0.041997
vt 0.340096 0.240162
vt 0.341614 0.089412
vt 0.299223 0.041132
vt 0.297964 0.152797
vt 0.741416 0.522958
vt 0.843428 0.520107
vt 0.877839 0.519145
vt 0.984372 0.516164
vt 0.692932 0.043485
vt 0.692250 0.027895
vt 0.693413 0.043467
vt 0.725261 0.026627
vt 0.830897 0.022569
vt 0.869509 0.021084
vt 0.979344 0.016861
vt 0.058430 0.317323
vt 0.107257 0.316181
vt 0.234637 0.313202
vt 0.296172 0.311763
vt 0.915158 0.454706
vt 0.869030 0.457333
vt 0.869060 0.432985
vt 0.940018 0.429327
vt 0.771251 0.980274
vt 0.769290 0.950520
vt 0.851105 0.949760
vt 0.851610 0.978028
vt 0.887956 0.968097
vt 0.887536 0.949424
vt 0.921388 0.949114
vt 0.291104 0.761309
vt 0.290674 0.799433
vt 0.229139 0.800872
vt 0.229569 0.762748
vt 0.101758 0.803851
vt 0.102188 0.765727
vt 0.333713 0.874187
vt 0.334207 0.825143
vt 0.389846 0.822855
vt 0.389353 0.871899
vt 0.505023 0.818119
vt 0.504529 0.867163
vt 0.548131 0.919733
vt 0.547594 0.973033
vt 0.503445 0.974849
vt 0.503982 0.921548
vt 0.388269 0.979585
vt 0.388805 0.926285
vt 0.051830 0.902665
vt 0.052296 0.861386
vt 0.101123 0.860244
vt 0.100657 0.901523
vt 0.228503 0.857265
vt 0.228038 0.898544
vt 0.549674 0.688020
vt 0.550003 0.733781
vt 0.505854 0.735597
vt 0.505849 0.689823
vt 0.390677 0.740333
vt 0.391519 0.694524
vt 0.291316 0.663046
vt 0.291811 0.698533
vt 0.230276 0.699972
vt 0.230245 0.664475
vt 0.102896 0.702952
vt 0.103824 0.667431
vt 0.052931 0.804993
vt 0.053361 0.766869
vt 0.290038 0.855826
vt 0.289573 0.897105
vt 0.332629 0.981873
vt 0.333166 0.928572
vt 0.549172 0.816303
vt 0.548678 0.865347
vt 0.335038 0.742621
vt 0.336289 0.696795
vt 0.054069 0.704093
vt 0.055365 0.668564
vt 0.227046 0.986509
vt 0.099665 0.989488
vt 0.288581 0.985070
vt 0.050838 0.990629
vt 0.734259 0.972873
vt 0.732895 0.950861
vt 0.708207 0.392029
vt 0.706624 0.356133
vt 0.703969 0.295853
vt 0.651078 0.444272
vt 0.677006 0.468303
vt 0.612753 0.360420
vt 0.622912 0.391881
vt 0.605061 0.299641
vt 0.585386 0.047613
vt 0.583659 0.032063
vt 0.512897 0.035970
vt 0.557040 0.034743
vt 0.397736 0.039170
vt 0.342104 0.040716
vt 0.877768 0.534457
vt 0.687461 0.951291
vt 0.622856 0.847299
vt 0.726362 0.844861
vt 0.728547 0.880744
vt 0.633422 0.878036
vt 0.722818 0.786616
vt 0.614429 0.789632
vt 0.597720 0.542278
vt 0.707430 0.539217
vt 0.596187 0.527011
vt 0.706479 0.523933
vt 0.297533 0.191039
vt 0.235988 0.193383
vt 0.108586 0.198236
vt 0.059759 0.199378
vt 0.869002 0.479828
vt 0.831866 0.489858
vt 0.749955 0.493004
vt 0.712303 0.485357
vt 0.661484 0.928073
vt 0.731418 0.927035
vt 0.767707 0.926501
vt 0.850669 0.925286
vt 0.886981 0.924757
vt 0.945197 0.923913

# vertex normals
vn -0.000238 0.001644 0.999999
vn -0.000195 0.001373 0.999999
vn 0.000000 0.005646 0.999984
vn 0.000000 0.005646 0.999984
vn 0.999151 0.041196 0.000000
vn 0.999392 0.034861 -0.000000
vn 0.999392 0.034867 -0.000000
vn 0.999150 0.041226 -0.000000
vn -0.998949 0.045826 -0.000000
vn -0.999392 0.034867 -0.000000
vn -0.999392 0.034861 -0.000000
vn -0.998952 0.045777 0.000000
vn 0.000000 0.005646 0.999984
vn -0.000005 0.001730 0.999998
vn 0.000009 0.001792 0.999998
vn 0.000000 0.005646 0.999984
vn -0.001072 -0.007814 0.999969
vn -0.000557 -0.006057 0.999981
vn -0.001133 -0.016125 0.999869
vn -0.001519 -0.016494 0.999863
vn 0.000029 -0.006922 0.999976
vn 0.000055 -0.015780 0.999875
vn -0.000032 -0.015775 0.999876
vn -0.000015 -0.006818 0.999977
vn 0.000000 0.000000 -1.000000
vn 0.000000 0.000000 -1.000000
vn 0.000000 0.000000 -1.000000
vn -0.000000 0.000000 -1.000000
vn 0.000000 0.000000 -1.000000
vn 0.000231 0.001576 -0.999999
vn 0.000204 0.001223 -0.999999
vn -0.000000 0.005646 -0.999984
vn -0.000000 0.005646 -0.999984
vn 0.001129 -0.008167 -0.999966
vn 0.000597 -0.006084 -0.999981
vn 0.001188 -0.016272 -0.999867
vn 0.001495 -0.016810 -0.999858
vn -0.000017 -0.006828 -0.999977
vn -0.000035 -0.015775 -0.999876
vn 0.000080 -0.015781 -0.999875
vn 0.000040 -0.006926 -0.999976
vn -0.000006 0.001736 -0.999998
vn 0.000000 0.005646 -0.999984
vn 0.000000 0.005646 -0.999984
vn 0.000013 0.001820 -0.999998
vn 0.999390 0.034915 0.000000
vn 0.999140 0.041454 0.000000
vn -0.999390 0.034915 -0.000000
vn -0.998932 0.046199 -0.000000
vn 0.999390 0.034915 0.000000
vn 0.999140 0.041454 -0.000000
vn -0.999390 0.034915 -0.000000
vn -0.998932 0.046199 -0.000000
vn 0.000000 -1.000000 0.000000
vn 0.000000 -1.000000 0.000001
vn 0.000000 -1.000000 0.000001
vn 0.000000 -1.000000 0.000000
vn 0.000000 -1.000000 0.000002
vn 0.000000 -1.000000 0.000001
vn -0.000000 -1.000000 0.000001
vn -0.000000 -1.000000 0.000001
vn 0.000000 -1.000000 0.000002
vn 0.000000 -1.000000 0.000002
vn 0.000000 -1.000000 0.000002
vn 0.000000 -1.000000 0.000002
vn 0.000000 -1.000000 0.000003
vn 0.000000 -1.000000 0.000003
vn 0.000000 -1.000000 0.000003
vn 0.000000 -1.000000 0.000003
vn 0.000000 0.005647 0.999984
vn 0.000000 0.005647 0.999984
vn 0.000000 0.005647 0.999984
vn 0.000000 0.005647 0.999984
vn 0.998157 0.060678 0.000000
vn 0.998157 0.060677 -0.000000
vn 0.998157 0.060677 -0.000000
vn 0.998157 0.060677 0.000000
vn 0.000000 0.005646 -0.999984
vn 0.000000 0.005647 -0.999984
vn 0.000000 0.005646 -0.999984
vn 0.000000 0.005647 -0.999984
vn 0.000000 0.005647 -0.999984
vn -0.000000 0.005646 -0.999984
vn -0.000000 0.005646 -0.999984
vn -0.998157 0.060677 0.000000
vn -0.998157 0.060677 -0.000000
vn -0.998157 0.060677 -0.000000
vn -0.998157 0.060678 -0.000000
vn -0.000000 0.000000 -1.000000
vn -0.000000 0.000000 -1.000000
vn -0.000000 0.000000 -1.000000
vn 0.000000 0.000000 1.000000
vn -0.000000 0.000000 1.000000
vn -0.000000 0.000000 1.000000
vn -0.000000 0.000000 1.000000
vn -0.000000 0.000000 1.000000
vn -0.863546 0.504270 0.000001
vn -0.614878 0.788622 0.000000
vn -0.614878 0.788622 0.000000
vn -0.863546 0.504271 0.000000
vn -0.614878 0.788622 0.000000
vn -0.863546 0.504271 -0.000000
vn 0.655072 0.755566 -0.000000
vn 0.877206 0.480114 -0.000001
vn 0.877206 0.480114 -0.000000
vn 0.655072 0.755566 0.000000
vn 0.877206 0.480114 0.000000
vn 0.655072 0.755566 0.000000
vn 0.413978 0.910287 0.000000
vn 0.090305 0.995914 0.000000
vn 0.090305 0.995914 0.000000
vn 0.413978 0.910287 0.000000
vn 0.090305 0.995914 0.000000
vn 0.413978 0.910287 0.000000
vn -0.085373 0.996349 0.000000
vn -0.409976 0.912096 0.000000
vn -0.409976 0.912096 -0.000000
vn -0.085373 0.996349 0.000000
vn -0.409976 0.912096 -0.000000
vn -0.085373 0.996349 -0.000000
vn 0.991057 0.133443 -0.000001
vn 0.944663 0.328042 0.000000
vn 0.944982 0.327122 0.000000
vn 0.991447 0.130507 -0.000000
vn 0.945023 0.327005 -0.000000
vn 0.991496 0.130140 0.000000
vn -0.987175 0.159640 0.000000
vn -0.936332 0.351116 0.000001
vn -0.936728 0.350058 0.000000
vn -0.987719 0.156241 0.000000
vn -0.936683 0.350178 -0.000000
vn -0.987659 0.156619 -0.000000
vn -0.614878 0.788622 -0.000001
vn -0.863546 0.504270 -0.000000
vn -0.409977 0.912096 0.000000
vn 0.877206 0.480114 0.000000
vn 0.655072 0.755566 0.000000
vn 0.944663 0.328042 -0.000001
vn 0.991057 0.133442 0.000000
vn -0.936332 0.351116 -0.000001
vn -0.987175 0.159640 -0.000001
vn -0.000560 -0.006048 -0.999981
vn -0.001139 -0.016129 -0.999869
vn -0.000196 0.001356 -0.999999
vn 0.000000 0.000000 -1.000000
vn -0.001513 -0.016495 -0.999863
vn -0.001070 -0.007811 -0.999969
vn -0.000237 0.001643 -0.999999
vn 0.000000 0.005646 -0.999984
vn 0.000000 0.005647 -0.999984
vn 0.000000 0.005646 0.999984
vn 0.001513 -0.016797 0.999858
vn 0.001189 -0.016280 0.999867
vn 0.000599 -0.006110 0.999981
vn 0.001144 -0.008215 0.999966
vn 0.000204 0.001233 0.999999
vn 0.000232 0.001608 0.999999
vn 0.000000 0.005646 0.999984
vn 0.000000 0.005646 0.999984
vn 0.000000 0.005647 0.999984
vn 0.000000 0.005647 0.999984
vn -0.000000 -1.000000 0.000003
vn -0.000000 -1.000000 0.000002
vn -0.000000 -1.000000 0.000001
vn -0.000000 -1.000000 0.000000
vn -0.000000 -1.000000 0.000003
vn -0.000000 -1.000000 0.000002
vn -0.000000 -1.000000 0.000001
vn -0.000000 0.000000 -1.000000
vn 0.000000 0.000000 -1.000000
vn 0.000000 0.000000 -1.000000
vn -0.000000 0.000000 -1.000000

# Mesh
g SmallTombstone1
usemtl Tomb3
f 4/4/4 1/1/1 2/2/2
f 2/2/2 3/3/3 4/4/4
f 8/8/8 5/5/5 6/6/6
f 6/6/6 7/7/7 8/8/8
f 12/12/12 9/9/9 10/10/10
f 10/10/10 11/11/11 12/12/12
f 16/16/16 13/13/13 14/14/14
f 14/14/14 15/15/15 16/16/16
f 20/20/20 17/17/17 18/18/18
f 18/18/18 19/19/19 20/20/20
f 24/24/24 21/21/21 22/22/22
f 22/22/22 23/23/23 24/24/24
f 28/28/27 25/25/25 26/26/25
f 26/26/25 27/27/26 28/28/27
f 25/25/25 28/28/27 29/29/28
f 29/29/28 30/30/29 25/25/25
f 34/34/33 31/31/30 32/32/31
f 32/32/31 33/33/32 34/34/33
f 38/38/37 35/35/34 36/36/35
f 36/36/35 37/37/36 38/38/37
f 42/42/41 39/39/38 40/40/39
f 40/40/39 41/41/40 42/42/41
f 46/46/45 43/43/42 44/44/43
f 44/44/43 45/45/44 46/46/45
f 1/48/47 4/47/46 6/6/6
f 6/6/6 5/5/5 1/48/47
f 48/50/49 12/12/12 11/11/11
f 11/11/11 47/49/48 48/50/49
f 50/52/51 8/8/8 7/7/7
f 7/7/7 49/51/50 50/52/51
f 31/54/53 34/53/52 10/10/10
f 10/10/10 9/9/9 31/54/53
f 54/58/57 51/55/54 52/56/55
f 52/56/55 53/57/56 54/58/57
f 58/62/61 55/59/58 56/60/59
f 56/60/59 57/61/60 58/62/61
f 60/64/63 53/57/56 52/56/55
f 52/56/55 59/63/62 60/64/63
f 62/66/65 61/65/64 57/61/60
f 57/61/60 56/60/59 62/66/65
f 60/64/63 59/63/62 63/67/66
f 63/67/66 64/68/67 60/64/63
f 61/65/64 62/66/65 65/69/68
f 65/69/68 66/70/69 61/65/64
f 13/13/13 16/16/16 66/71/70
f 66/71/70 65/72/71 13/13/13
f 4/4/4 3/3/3 64/73/72
f 64/73/72 63/74/73 4/4/4
f 4/47/46 63/67/74 59/63/75
f 59/63/75 6/6/6 4/47/46
f 52/56/76 7/7/7 6/6/6
f 6/6/6 59/63/75 52/56/76
f 51/55/77 49/51/50 7/7/7
f 7/7/7 52/56/76 51/55/77
f 67/75/78 54/76/79 68/77/80
f 45/45/44 44/44/43 55/78/81
f 55/78/81 58/79/82 45/45/44
f 34/34/33 33/33/32 69/80/83
f 69/80/83 70/81/84 34/34/33
f 34/53/52 70/82/85 71/83/86
f 71/83/86 10/10/10 34/53/52
f 72/84/87 11/11/11 10/10/10
f 10/10/10 71/83/86 72/84/87
f 73/85/88 47/49/48 11/11/11
f 11/11/11 72/84/87 73/85/88
f 77/89/91 74/86/25 75/87/89
f 75/87/89 76/88/90 77/89/91
f 81/93/94 78/90/92 79/91/92
f 79/91/92 80/92/93 81/93/94
f 82/94/95 83/95/96 84/96/92
f 88/100/100 85/97/97 86/98/98
f 86/98/98 87/99/99 88/100/100
f 90/102/102 88/100/100 87/99/99
f 87/99/99 89/101/101 90/102/102
f 93/106/106 84/103/103 91/104/104
f 91/104/104 92/105/105 93/106/106
f 95/108/108 93/106/106 92/105/105
f 92/105/105 94/107/107 95/108/108
f 99/112/112 96/109/109 97/110/110
f 97/110/110 98/111/111 99/112/112
f 101/114/114 99/112/112 98/111/111
f 98/111/111 100/113/113 101/114/114
f 105/118/118 102/115/115 103/116/116
f 103/116/116 104/117/117 105/118/118
f 107/120/120 105/118/118 104/117/117
f 104/117/117 106/119/119 107/120/120
f 111/124/124 108/121/121 109/122/122
f 109/122/122 110/123/123 111/124/124
f 113/126/126 111/124/124 110/123/123
f 110/123/123 112/125/125 113/126/126
f 117/130/130 114/127/127 115/128/128
f 115/128/128 116/129/129 117/130/130
f 119/132/132 117/130/130 116/129/129
f 116/129/129 118/131/131 119/132/132
f 77/134/134 90/102/102 89/101/101
f 89/101/101 74/133/133 77/134/134
f 106/119/119 120/135/135 78/136/118
f 78/136/118 107/120/120 106/119/119
f 100/113/113 81/137/111 82/138/112
f 82/138/112 101/114/114 100/113/113
f 122/140/137 95/108/108 94/107/107
f 94/107/107 121/139/136 122/140/137
f 112/125/125 17/141/138 20/142/139
f 20/142/139 113/126/126 112/125/125
f 38/144/141 119/132/132 118/131/131
f 118/131/131 35/143/140 38/144/141
f 95/108/108 99/112/112 101/114/114
f 101/114/114 93/106/106 95/108/108
f 98/146/111 105/118/118 107/120/120
f 107/120/120 100/145/113 98/146/111
f 87/99/99 106/119/119 104/117/117
f 104/117/117 89/101/101 87/99/99
f 111/124/124 113/126/126 5/5/5
f 5/5/5 8/8/8 111/124/124
f 117/130/130 119/132/132 9/9/9
f 9/9/9 12/12/12 117/130/130
f 94/107/107 92/105/105 112/125/125
f 112/125/125 110/123/123 94/107/107
f 88/100/100 90/102/102 118/131/131
f 118/131/131 116/129/129 88/100/100
f 86/98/98 120/135/135 106/119/119
f 106/119/119 87/99/99 86/98/98
f 100/145/113 107/120/120 78/136/118
f 78/136/118 81/147/111 100/145/113
f 93/106/106 101/114/114 82/138/112
f 82/138/112 84/103/103 93/106/106
f 91/104/104 17/141/138 112/125/125
f 112/125/125 92/105/105 91/104/104
f 20/142/139 1/48/47 5/5/5
f 5/5/5 113/126/126 20/142/139
f 114/127/127 117/130/130 12/12/12
f 12/12/12 48/50/49 114/127/127
f 85/97/97 88/100/100 116/129/129
f 116/129/129 115/128/128 85/97/97
f 108/121/121 111/124/124 8/8/8
f 8/8/8 50/52/51 108/121/121
f 121/139/136 94/107/107 110/123/123
f 110/123/123 109/122/122 121/139/136
f 122/140/137 96/109/109 99/112/112
f 99/112/112 95/108/108 122/140/137
f 97/148/110 102/115/115 105/118/118
f 105/118/118 98/146/111 97/148/110
f 89/101/101 104/117/117 103/116/116
f 103/116/116 74/133/133 89/101/101
f 77/134/134 35/143/140 118/131/131
f 118/131/131 90/102/102 77/134/134
f 38/144/141 31/54/53 9/9/9
f 9/9/9 119/132/132 38/144/141
f 79/91/92 78/90/92 120/149/92
f 120/149/92 123/150/92 79/91/92
f 15/15/15 14/14/14 23/23/23
f 23/23/23 22/22/22 15/15/15
f 1/1/1 20/20/20 19/19/19
f 19/19/19 2/2/2 1/1/1
f 43/43/42 46/46/45 41/41/40
f 41/41/40 40/40/39 43/43/42
f 31/31/30 38/38/37 37/37/36
f 37/37/36 32/32/31 31/31/30
f 125/152/143 40/40/39 39/39/38
f 39/39/38 124/151/142 125/152/143
f 125/152/143 126/153/144 43/43/42
f 43/43/42 40/40/39 125/152/143
f 67/75/78 68/77/80 44/44/43
f 44/44/43 43/43/42 126/153/144
f 44/44/43 126/153/144 67/75/78
f 68/77/80 54/76/79 55/78/81
f 55/78/81 44/44/43 68/77/80
f 122/155/25 121/154/145 30/30/29
f 30/30/29 29/29/28 122/155/25
f 109/157/147 108/156/146 125/152/143
f 125/152/143 124/151/142 109/157/147
f 50/158/148 126/153/144 125/152/143
f 125/152/143 108/156/146 50/158/148
f 50/158/148 49/159/149 67/75/78
f 67/75/78 126/153/144 50/158/148
f 49/159/149 51/160/150 54/76/79
f 54/76/79 67/75/78 49/159/149
f 55/162/58 54/58/57 53/57/56
f 53/57/56 56/161/59 55/162/58
f 60/64/63 62/163/65 56/161/59
f 56/161/59 53/57/56 60/64/63
f 62/163/65 60/64/63 64/68/67
f 64/68/67 65/164/68 62/163/65
f 127/165/151 13/13/13 65/72/71
f 65/72/71 64/73/72 127/165/151
f 82/94/95 81/93/94 80/92/93
f 80/92/93 83/95/96 82/94/95
f 23/23/23 19/19/19 18/18/18
f 18/18/18 24/24/24 23/23/23
f 23/23/23 14/14/14 2/2/2
f 2/2/2 19/19/19 23/23/23
f 127/165/151 3/3/3 2/2/2
f 127/165/151 2/2/2 14/14/14
f 127/165/151 14/14/14 13/13/13
f 127/165/151 64/73/72 3/3/3
f 86/166/92 123/150/92 120/149/92
f 115/170/155 114/167/152 128/168/153
f 128/168/153 129/169/154 115/170/155
f 48/172/157 130/171/156 128/168/153
f 128/168/153 114/167/152 48/172/157
f 48/172/157 47/173/158 131/174/159
f 131/174/159 130/171/156 48/172/157
f 47/173/158 73/175/160 132/176/161
f 132/176/161 131/174/159 47/173/158
f 128/168/153 22/22/22 21/21/21
f 21/21/21 129/169/154 128/168/153
f 128/168/153 130/171/156 15/15/15
f 15/15/15 22/22/22 128/168/153
f 131/174/159 16/16/16 15/15/15
f 15/15/15 130/171/156 131/174/159
f 131/174/159 132/176/161 66/71/70
f 66/71/70 16/16/16 131/174/159
f 133/178/163 61/65/64 66/70/69
f 66/70/69 132/177/162 133/178/163
f 133/178/163 134/179/164 57/61/60
f 57/61/60 61/65/64 133/178/163
f 69/180/165 58/62/61 57/61/60
f 57/61/60 134/179/164 69/180/165
f 72/84/167 133/178/163 132/177/162
f 132/177/162 73/85/166 72/84/167
f 72/84/167 71/83/168 134/179/164
f 134/179/164 133/178/163 72/84/167
f 71/83/168 70/82/54 69/180/165
f 69/180/165 134/179/164 71/83/168
f 76/88/90 75/87/89 27/27/26
f 27/27/26 26/26/25 76/88/90
f 41/41/40 37/37/36 36/36/35
f 36/36/35 42/42/41 41/41/40
f 41/41/40 46/46/45 32/32/31
f 32/32/31 37/37/36 41/41/40
f 45/45/44 33/33/32 32/32/31
f 32/32/31 46/46/45 45/45/44
f 58/79/82 69/80/83 33/33/32
f 33/33/32 45/45/44 58/79/82
f 103/181/169 75/87/89 74/86/25
f 103/181/169 102/182/170 27/27/26
f 27/27/26 75/87/89 103/181/169
f 97/183/171 28/28/27 27/27/26
f 27/27/26 102/182/170 97/183/171
f 97/183/171 96/184/172 29/29/28
f 29/29/28 28/28/27 97/183/171
f 122/155/25 29/29/28 96/184/172
f 86/166/92 85/185/92 135/186/92
f 135/186/92 123/150/92 86/166/92
f 136/187/92 79/91/92 123/150/92
f 123/150/92 135/186/92 136/187/92
f 137/188/92 80/92/93 79/91/92
f 79/91/92 136/187/92 137/188/92
f 138/189/92 83/95/96 80/92/93
f 80/92/93 137/188/92 138/189/92
f 91/190/92 84/96/92 83/95/96
f 83/95/96 138/189/92 91/190/92
f 115/170/155 129/169/154 135/186/92
f 135/186/92 85/185/92 115/170/155
f 21/21/21 136/187/92 135/186/92
f 135/186/92 129/169/154 21/21/21
f 24/24/24 137/188/92 136/187/92
f 136/187/92 21/21/21 24/24/24
f 18/18/18 138/189/92 137/188/92
f 137/188/92 24/24/24 18/18/18
f 17/17/17 91/190/92 138/189/92
f 138/189/92 18/18/18 17/17/17
f 109/157/147 124/151/142 30/30/29
f 30/30/29 121/154/145 109/157/147
f 39/39/38 25/25/25 30/30/29
f 30/30/29 124/151/142 39/39/38
f 39/39/38 42/42/41 26/26/25
f 26/26/25 25/25/25 39/39/38
f 36/36/35 76/88/90 26/26/25
f 26/26/25 42/42/41 36/36/35
f 35/35/34 77/89/91 76/88/90
f 76/88/90 36/36/35 35/35/34
