# File produced by Open Asset Import Library (http://www.assimp.sf.net)
# (assimp v3.1.202510665)

mtllib cross.mtl

# vertex positions
v -17.328955 -0.912989 62.530609
v 17.328955 -0.912989 62.530609
v 17.328955 2.637121 62.530609
v -17.328955 2.637121 62.530609
v -4.555589 47.469715 49.757244
v 4.555589 47.469715 49.757244
v 4.555589 47.469715 40.646069
v -4.555589 47.469715 40.646069
v -17.328955 2.637121 27.872704
v 17.328955 2.637121 27.872704
v 17.328955 -0.912989 27.872704
v -17.328955 -0.912989 27.872704
v 12.130271 2.637121 57.331928
v -12.130271 2.637121 57.331928
v 12.130271 2.637121 33.071384
v -12.130271 2.637121 33.071384
v 12.130271 7.089027 57.331928
v -12.130271 7.089027 57.331928
v 12.130271 7.089027 33.071384
v -12.130271 7.089027 33.071384
v 4.555589 7.089027 49.757244
v -4.555589 7.089027 49.757244
v 4.555589 7.089027 40.646069
v -4.555589 7.089027 40.646069
v -4.555589 32.673180 56.892086
v 4.555589 32.673180 56.892086
v 4.555589 39.005192 56.892086
v -4.555589 39.005192 56.892086
v 4.555589 32.673180 49.757244
v 4.555589 32.673180 40.646069
v 4.555589 39.005192 40.646069
v 4.555589 39.005192 49.757244
v 4.555589 32.673180 33.511223
v -4.555589 32.673180 33.511223
v -4.555589 39.005192 33.511223
v 4.555589 39.005192 33.511223
v -4.555589 32.673180 40.646069
v -4.555589 32.673180 49.757244
v -4.555589 39.005192 49.757244
v -4.555589 39.005192 40.646069

# UV coordinates
vt 0.897158 0.068695
vt 0.730127 0.070744
vt 0.729917 0.053634
vt 0.896948 0.051585
vt 0.315638 0.557077
vt 0.241795 0.516766
vt 0.282106 0.442923
vt 0.355949 0.483234
vt 0.899417 0.252836
vt 0.732385 0.254885
vt 0.732176 0.237775
vt 0.899207 0.235726
vt 0.715066 0.237985
vt 0.713017 0.070954
vt 0.914268 0.068485
vt 0.916317 0.235516
vt 0.754664 0.028272
vt 0.871586 0.026838
vt 0.689704 0.213238
vt 0.688270 0.096316
vt 0.874670 0.278198
vt 0.757747 0.279632
vt 0.939630 0.093232
vt 0.941064 0.210154
vt 0.330363 0.763374
vt 0.326548 0.539393
vt 0.367650 0.538693
vt 0.371465 0.762674
vt 0.366950 0.497591
vt 0.590931 0.493776
vt 0.591631 0.534878
vt 0.632733 0.534178
vt 0.636548 0.758159
vt 0.595446 0.758859
vt 0.596146 0.799961
vt 0.372165 0.803776
vt 0.438773 0.607434
vt 0.440206 0.691551
vt 0.522890 0.606001
vt 0.524323 0.690118
vt 0.218605 0.734824
vt 0.144762 0.694512
vt 0.172777 0.643193
vt 0.246620 0.683505
vt 0.752754 0.730529
vt 0.889530 0.729819
vt 0.890023 0.824874
vt 0.753248 0.825584
vt 0.379139 0.265176
vt 0.452982 0.305488
vt 0.424967 0.356807
vt 0.351124 0.316495
vt 0.105219 0.326559
vt 0.209440 0.328445
vt 0.208129 0.400875
vt 0.103908 0.398989
vt 0.073843 1.000000
vt 0.000000 0.959689
vt 0.113194 0.752338
vt 0.187037 0.792649
vt 0.750760 0.346464
vt 0.887536 0.345754
vt 0.523901 0.000000
vt 0.597744 0.040311
vt 0.484550 0.247662
vt 0.410707 0.207351
vt 0.110515 0.033909
vt 0.214736 0.035795
vt 0.206377 0.497699
vt 0.102156 0.495813
vt 0.319557 0.374321
vt 0.393400 0.414632
vt 0.890683 0.951942
vt 0.753907 0.952652
vt 0.278188 0.625679
vt 0.204344 0.585368
vt 0.646141 0.826140
vt 0.645647 0.731085
vt 0.291053 0.329922
vt 0.289743 0.402352
vt 0.022295 0.397513
vt 0.023605 0.325082
vt 0.996637 0.729263
vt 0.997130 0.824318

# vertex normals
vn 0.000000 0.000000 1.000000
vn 0.000000 1.000000 0.000000
vn 0.000000 0.000000 -1.000000
vn 0.000000 -1.000000 0.000000
vn 1.000000 0.000000 0.000000
vn -1.000000 0.000000 0.000000
vn 0.000000 1.000000 -0.000000
vn 0.000000 1.000000 -0.000000
vn 0.000000 1.000000 -0.000000
vn 0.000000 1.000000 0.000000
vn 0.000000 1.000000 0.000000
vn 0.000000 1.000000 0.000000
vn 0.000000 1.000000 0.000000
vn 0.000000 1.000000 0.000000
vn 0.000000 1.000000 -0.000000

# Mesh
g Cross
usemtl lambert1
f 4/4/1 1/1/1 2/2/1
f 2/2/1 3/3/1 4/4/1
f 8/8/2 5/5/2 6/6/2
f 6/6/2 7/7/2 8/8/2
f 12/12/3 9/9/3 10/10/3
f 10/10/3 11/11/3 12/12/3
f 1/1/4 12/12/4 11/11/4
f 11/11/4 2/2/4 1/1/4
f 3/14/5 2/2/5 11/11/5
f 11/11/5 10/13/5 3/14/5
f 9/16/6 12/12/6 1/1/6
f 1/1/6 4/15/6 9/16/6
f 14/18/9 4/4/7 3/3/7
f 3/3/7 13/17/8 14/18/9
f 13/20/8 3/14/7 10/13/10
f 10/13/10 15/19/11 13/20/8
f 15/22/11 10/10/10 9/9/12
f 9/9/12 16/21/13 15/22/11
f 16/24/13 9/16/12 4/15/7
f 4/15/7 14/23/9 16/24/13
f 18/28/1 14/25/1 13/26/1
f 13/26/1 17/27/1 18/28/1
f 17/27/5 13/29/5 15/30/5
f 15/30/5 19/31/5 17/27/5
f 19/31/3 15/32/3 16/33/3
f 16/33/3 20/34/3 19/31/3
f 20/34/6 16/35/6 14/36/6
f 14/36/6 18/28/6 20/34/6
f 22/38/14 18/28/14 17/27/14
f 17/27/14 21/37/14 22/38/14
f 21/37/14 17/27/14 19/31/15
f 19/31/15 23/39/15 21/37/14
f 23/39/15 19/31/15 20/34/15
f 20/34/15 24/40/15 23/39/15
f 24/40/15 20/34/15 18/28/14
f 18/28/14 22/38/14 24/40/15
f 28/44/1 25/41/1 26/42/1
f 26/42/1 27/43/1 28/44/1
f 32/48/5 29/45/5 30/46/5
f 30/46/5 31/47/5 32/48/5
f 36/52/3 33/49/3 34/50/3
f 34/50/3 35/51/3 36/52/3
f 40/56/6 37/53/6 38/54/6
f 38/54/6 39/55/6 40/56/6
f 38/60/1 22/57/1 21/58/1
f 21/58/1 29/59/1 38/60/1
f 29/45/5 21/61/5 23/62/5
f 23/62/5 30/46/5 29/45/5
f 30/66/3 23/63/3 24/64/3
f 24/64/3 37/65/3 30/66/3
f 37/53/6 24/67/6 22/68/6
f 22/68/6 38/54/6 37/53/6
f 8/70/6 40/56/6 39/55/6
f 39/55/6 5/69/6 8/70/6
f 7/7/3 31/71/3 40/72/3
f 40/72/3 8/8/3 7/7/3
f 6/74/5 32/48/5 31/47/5
f 31/47/5 7/73/5 6/74/5
f 5/5/1 39/75/1 32/76/1
f 32/76/1 6/6/1 5/5/1
f 25/41/4 38/60/4 29/59/4
f 29/59/4 26/42/4 25/41/4
f 26/78/5 29/45/5 32/48/5
f 32/48/5 27/77/5 26/78/5
f 27/43/2 32/76/2 39/75/2
f 39/75/2 28/44/2 27/43/2
f 28/80/6 39/55/6 38/54/6
f 38/54/6 25/79/6 28/80/6
f 33/49/4 30/66/4 37/65/4
f 37/65/4 34/50/4 33/49/4
f 34/82/6 37/53/6 40/56/6
f 40/56/6 35/81/6 34/82/6
f 35/51/2 40/72/2 31/71/2
f 31/71/2 36/52/2 35/51/2
f 36/84/5 31/47/5 30/46/5
f 30/46/5 33/83/5 36/84/5
