# File produced by Open Asset Import Library (http://www.assimp.sf.net)
# (assimp v3.1.202510665)

mtllib MT_Tomb3.mtl

# vertex positions
v -217.443359 56.611427 6.995040
v -217.443359 56.611427 17.195538
v -212.361755 51.750542 17.262651
v -212.361755 51.750542 6.927928
v -221.650925 6.900799 17.262651
v -221.650925 6.900799 6.927928
v -203.465317 6.900799 6.927928
v -203.465317 6.900799 17.262651
v -203.465317 40.458202 6.927928
v -203.465317 40.458202 17.262651
v -239.342850 6.900799 6.927928
v -239.342850 6.900799 17.262651
v -239.342850 40.458202 17.262651
v -239.342850 40.458202 6.927928
v -230.446411 51.750542 6.927928
v -230.446411 51.750542 17.262651
v -225.811218 56.531891 17.195538
v -225.811218 56.531891 6.995040
v -238.534897 44.779583 17.262651
v -238.534897 44.779579 6.927928
v -236.234070 48.443085 17.262651
v -236.234070 48.443085 6.927928
v -232.790588 50.890945 17.262651
v -232.790588 50.890945 6.927928
v -210.017578 50.890945 17.262651
v -210.017578 50.890945 6.927928
v -206.574112 48.443085 17.262651
v -206.574112 48.443085 6.927928
v -204.273270 44.779579 17.262651
v -204.273270 44.779579 6.927928
v -221.650925 56.584026 17.262651
v -221.650925 62.348419 17.262651
v -222.892838 61.546494 17.242617
v -220.388794 61.559967 17.242519
v -221.650925 56.589703 6.927928
v -221.650925 62.348419 6.927928
v -220.388794 61.559967 6.948060
v -222.892838 61.546494 6.947963
v -221.650925 51.750565 6.927928
v -221.650925 51.750542 17.262651
v -220.927795 62.097900 6.942934
v -220.927795 62.097900 17.247646
v -222.358963 62.090210 6.942877
v -222.358963 62.090210 17.247704

# UV coordinates
vt 0.586611 0.811694
vt 0.587051 0.944185
vt 0.544092 0.945101
vt 0.543647 0.810867
vt 0.149905 0.945507
vt 0.149459 0.811273
vt 0.271560 0.811148
vt 0.272005 0.945381
vt 0.451796 0.810962
vt 0.452241 0.945196
vt 0.984723 0.810413
vt 0.985169 0.944647
vt 0.804933 0.944832
vt 0.804488 0.810598
vt 0.030673 0.811396
vt 0.031119 0.945630
vt 0.712637 0.810693
vt 0.713082 0.944927
vt 0.672730 0.944097
vt 0.672291 0.811606
vt 0.781098 0.944857
vt 0.780652 0.810623
vt 0.756081 0.944883
vt 0.755636 0.810649
vt 0.729484 0.944910
vt 0.729039 0.810676
vt 0.527690 0.945118
vt 0.527244 0.810884
vt 0.501093 0.945145
vt 0.500648 0.810911
vt 0.476077 0.945171
vt 0.475631 0.810937
vt 0.707609 0.504300
vt 0.749073 0.504491
vt 0.749302 0.550389
vt 0.736892 0.544066
vt 0.791005 0.504516
vt 0.761850 0.544049
vt 0.214673 0.579957
vt 0.271021 0.580248
vt 0.270425 0.641864
vt 0.253602 0.633265
vt 0.619738 0.811050
vt 0.620181 0.944761
vt 0.639426 0.944743
vt 0.638982 0.811029
vt 0.147283 0.527180
vt 0.271523 0.528446
vt 0.326742 0.580191
vt 0.389161 0.529521
vt 0.661338 0.466378
vt 0.748880 0.465987
vt 0.841335 0.465478
vt 0.637973 0.459650
vt 0.747097 0.108878
vt 0.929429 0.375131
vt 0.928091 0.107966
vt 0.116021 0.517680
vt 0.276165 0.048567
vt 0.509313 0.409859
vt 0.512779 0.050844
vt 0.864632 0.458517
vt 0.603604 0.440332
vt 0.580559 0.411279
vt 0.572346 0.376915
vt 0.898806 0.438857
vt 0.571017 0.109748
vt 0.921560 0.409576
vt 0.070220 0.491045
vt 0.420602 0.520627
vt 0.029469 0.405217
vt 0.039827 0.451553
vt 0.466909 0.494883
vt 0.032947 0.046203
vt 0.498060 0.455986
vt 0.287141 0.633445
vt 0.624368 0.810979
vt 0.624812 0.944823
vt 0.629406 0.810779
vt 0.629851 0.945013
vt 0.634358 0.810968
vt 0.634802 0.944813
vt 0.279947 0.639200
vt 0.260754 0.639096
vt 0.756509 0.548363
vt 0.742226 0.548373

# vertex normals
vn 0.773793 0.633439 0.000000
vn 0.773793 0.633439 0.000000
vn 0.609469 0.792810 0.000000
vn 0.609469 0.792810 0.000000
vn 0.000000 -1.000000 0.000000
vn 1.000000 0.000000 0.000000
vn 0.999773 0.021325 0.000000
vn -1.000000 0.000000 0.000000
vn -0.999773 0.021325 0.000000
vn -0.627682 0.778470 0.000000
vn -0.627682 0.778470 0.000000
vn -0.791793 0.610789 0.000000
vn -0.931865 0.362806 -0.000000
vn -0.931865 0.362806 -0.000000
vn -0.728651 0.684886 -0.000000
vn -0.496163 0.868229 0.000000
vn 0.496166 0.868227 0.000000
vn 0.728651 0.684886 0.000000
vn 0.931864 0.362809 0.000000
vn -0.007010 0.007936 0.999944
vn -0.000009 0.006600 0.999978
vn 0.000117 0.000035 1.000000
vn -0.016138 0.000013 0.999870
vn 0.006699 0.008007 0.999945
vn 0.015957 0.000013 0.999873
vn 0.006698 0.008008 -0.999945
vn -0.000009 0.006596 -0.999978
vn 0.000117 0.000035 -1.000000
vn 0.015956 0.000013 -0.999873
vn 0.843944 0.536431 0.000000
vn -0.849291 0.527926 0.000000
vn -0.849291 0.527925 0.000000
vn 0.000162 0.000311 -1.000000
vn 0.000000 0.001042 -0.999999
vn -0.007009 0.007937 -0.999944
vn -0.000177 0.000323 -1.000000
vn -0.000177 0.000323 1.000000
vn -0.000000 0.001042 1.000000
vn 0.000162 0.000311 1.000000
vn 0.000000 0.000000 1.000000
vn 0.000000 0.000000 1.000000
vn -0.000000 0.000000 1.000000
vn 0.000000 0.000000 1.000000
vn -0.000000 0.000000 -1.000000
vn 0.000000 0.000000 -1.000000
vn -0.000000 0.000000 -1.000000
vn 0.000000 0.000000 -1.000000
vn -0.000000 0.000000 1.000000
vn 0.000001 0.000000 1.000000
vn 0.000000 0.000000 1.000000
vn 0.000000 0.000000 1.000000
vn -0.000000 0.000000 1.000000
vn -0.000000 0.000000 1.000000
vn 0.000000 0.000000 -1.000000
vn 0.000000 0.000000 -1.000000
vn 0.000000 0.000000 -1.000000
vn 0.000000 0.000000 -1.000000
vn -0.000000 0.000000 -1.000000
vn -0.000000 0.000000 -1.000000
vn -0.016138 0.000013 -0.999870
vn 0.528002 0.849243 0.000000
vn 0.528002 0.849243 0.000000
vn -0.005344 0.999986 0.000000
vn -0.005344 0.999986 0.000000
vn -0.540665 0.841238 0.000000
vn -0.540665 0.841238 0.000000
vn -0.027557 0.017711 -0.999463
vn 0.026712 0.017238 -0.999494
vn 0.026715 0.017238 0.999494
vn -0.027563 0.017708 0.999463

# Mesh
g MT_Tombs
usemtl lambert1
f 4/4/4 1/1/1 2/2/2
f 2/2/2 3/3/3 4/4/4
f 8/8/5 5/5/5 6/6/5
f 6/6/5 7/7/5 8/8/5
f 10/10/7 8/8/6 7/7/6
f 7/7/6 9/9/7 10/10/7
f 14/14/9 11/11/8 12/12/8
f 12/12/8 13/13/9 14/14/9
f 12/16/5 11/15/5 6/6/5
f 6/6/5 5/5/5 12/16/5
f 18/20/12 15/17/10 16/18/11
f 16/18/11 17/19/12 18/20/12
f 14/14/9 13/13/9 19/21/13
f 19/21/13 20/22/14 14/14/9
f 20/22/14 19/21/13 21/23/15
f 21/23/15 22/24/15 20/22/14
f 22/24/15 21/23/15 23/25/16
f 23/25/16 24/26/16 22/24/15
f 24/26/16 23/25/16 16/18/11
f 16/18/11 15/17/10 24/26/16
f 4/4/4 3/3/3 25/27/17
f 25/27/17 26/28/17 4/4/4
f 26/28/17 25/27/17 27/29/18
f 27/29/18 28/30/18 26/28/17
f 28/30/18 27/29/18 29/31/19
f 29/31/19 30/32/19 28/30/18
f 30/32/19 29/31/19 10/10/7
f 10/10/7 9/9/7 30/32/19
f 33/36/23 17/33/20 31/34/21
f 31/34/21 32/35/22 33/36/23
f 32/35/22 31/34/21 2/37/24
f 2/37/24 34/38/25 32/35/22
f 37/42/29 1/39/26 35/40/27
f 35/40/27 36/41/28 37/42/29
f 1/1/1 37/43/30 34/44/30
f 34/44/30 2/2/2 1/1/1
f 38/46/32 18/20/12 17/19/12
f 17/19/12 33/45/31 38/46/32
f 1/39/26 4/47/33 39/48/34
f 39/48/34 35/40/27 1/39/26
f 15/50/36 18/49/35 35/40/27
f 35/40/27 39/48/34 15/50/36
f 17/33/20 16/51/37 40/52/38
f 40/52/38 31/34/21 17/33/20
f 40/52/38 3/53/39 2/37/24
f 2/37/24 31/34/21 40/52/38
f 16/51/37 23/54/40 5/55/41
f 5/55/41 40/52/38 16/51/37
f 10/56/42 5/55/41 8/57/43
f 4/47/33 26/58/44 6/59/45
f 6/59/45 39/48/34 4/47/33
f 14/60/46 6/59/45 11/61/47
f 25/62/48 3/53/39 40/52/38
f 40/52/38 5/55/41 25/62/48
f 23/54/40 21/63/49 5/55/41
f 13/65/51 5/55/41 21/63/49
f 21/63/49 19/64/50 13/65/51
f 25/62/48 5/55/41 27/66/52
f 5/55/41 13/65/51 12/67/43
f 29/68/53 27/66/52 5/55/41
f 5/55/41 10/56/42 29/68/53
f 28/69/54 6/59/45 26/58/44
f 24/70/55 15/50/36 39/48/34
f 39/48/34 6/59/45 24/70/55
f 30/72/57 9/71/56 6/59/45
f 6/59/45 28/69/54 30/72/57
f 24/70/55 6/59/45 22/73/58
f 7/74/47 6/59/45 9/71/56
f 20/75/59 22/73/58 6/59/45
f 6/59/45 14/60/46 20/75/59
f 18/49/35 38/76/60 36/41/28
f 36/41/28 35/40/27 18/49/35
f 34/44/30 37/43/30 41/77/61
f 41/77/61 42/78/62 34/44/30
f 42/78/62 41/77/61 36/79/63
f 36/79/63 32/80/64 42/78/62
f 32/80/64 36/79/63 43/81/65
f 43/81/65 44/82/66 32/80/64
f 44/82/66 43/81/65 38/46/32
f 38/46/32 33/45/31 44/82/66
f 36/41/28 38/76/60 43/83/67
f 36/41/28 41/84/68 37/42/29
f 32/35/22 34/38/25 42/85/69
f 32/35/22 44/86/70 33/36/23
