# This file uses centimeters as units for non-parametric coordinates.

mtllib wooden_fence.mtl
g default
v -72.535187 -11.481034 30.152328
v -72.413563 -11.080175 30.571232
v -114.166685 1.150068 30.152328
v -114.045065 1.550929 30.571232
v -71.670715 -8.631794 30.152328
v -71.792339 -9.032652 30.571232
v -113.302233 3.999312 30.152328
v -113.423841 3.598451 30.571232
v -114.166685 1.150068 29.314348
v -114.045065 1.550929 28.895445
v -72.535187 -11.481034 29.314348
v -72.413563 -11.080175 28.895445
v -113.423841 3.598451 28.895445
v -113.302233 3.999312 29.314348
v -71.670715 -8.631794 29.314348
v -71.792339 -9.032652 28.895445
v -114.166677 -8.631819 30.319883
v -114.093706 -8.872334 30.571232
v -72.535193 3.999333 30.319883
v -72.462217 3.758817 30.571232
v -113.302206 -11.481053 30.319883
v -113.375177 -11.240538 30.571232
v -71.670715 1.150096 30.319883
v -71.743689 1.390611 30.571232
v -72.535193 3.999333 29.146790
v -72.462217 3.758817 28.895445
v -114.166677 -8.631819 29.146790
v -114.093706 -8.872334 28.895445
v -71.743689 1.390611 28.895445
v -71.670715 1.150096 29.146790
v -113.302206 -11.481053 29.146790
v -113.375177 -11.240538 28.895445
vt 0.644733 0.419824
vt 0.651895 0.426677
vt 0.651895 0.461685
vt 0.644733 0.468539
vt 0.630405 0.468539
vt 0.623243 0.461685
vt 0.623243 0.426677
vt 0.630405 0.419824
vt 0.608758 0.420656
vt 0.615920 0.427509
vt 0.615920 0.462518
vt 0.608758 0.469371
vt 0.594430 0.469371
vt 0.587268 0.462518
vt 0.587268 0.427509
vt 0.594430 0.420656
vt 0.555591 0.469371
vt 0.551293 0.465259
vt 0.551293 0.424768
vt 0.555591 0.420656
vt 0.575648 0.420656
vt 0.579945 0.424768
vt 0.579945 0.465259
vt 0.575648 0.469371
vt 0.519616 0.477914
vt 0.515318 0.473801
vt 0.515318 0.433310
vt 0.519616 0.429198
vt 0.539673 0.429198
vt 0.543970 0.433310
vt 0.543970 0.473801
vt 0.539673 0.477914
vt 0.833742 0.742113
vt 0.833742 0.030306
vt 0.848069 0.030306
vt 0.848069 0.742113
vt 0.826580 0.032385
vt 0.826580 0.744193
vt 0.855232 0.744193
vt 0.855232 0.032385
vt 0.870960 0.744192
vt 0.870960 0.032385
vt 0.885288 0.032385
vt 0.885288 0.744192
vt 0.863798 0.742113
vt 0.863798 0.030306
vt 0.892450 0.030306
vt 0.892450 0.742113
vt 0.925370 0.030306
vt 0.925370 0.742113
vt 0.905313 0.742113
vt 0.905313 0.030306
vt 0.929668 0.743360
vt 0.929668 0.031553
vt 0.901016 0.031553
vt 0.901016 0.743360
vt 0.974771 0.030576
vt 0.974771 0.742383
vt 0.954713 0.742383
vt 0.954713 0.030576
vt 0.979068 0.029328
vt 0.979068 0.741135
vt 0.950416 0.741135
vt 0.950416 0.029328
vt 0.799476 0.797408
vt 0.055749 0.784012
vt 0.056407 0.747434
vt 0.800135 0.760829
vt 0.780196 0.721338
vt 0.036644 0.700340
vt 0.037676 0.663771
vt 0.781228 0.684768
vt 0.788227 0.963608
vt 0.044401 0.969249
vt 0.044080 0.926936
vt 0.787907 0.921296
vt 0.789345 0.870678
vt 0.045498 0.871730
vt 0.045438 0.829416
vt 0.789285 0.828364
vn 0.000000 0.000000 1.000000
vn 0.000000 0.000000 1.000000
vn 0.000000 0.000000 1.000000
vn 0.000000 0.000000 1.000000
vn -0.000000 0.000000 -1.000000
vn -0.000000 0.000000 -1.000000
vn -0.000000 0.000000 -1.000000
vn -0.000000 0.000000 -1.000000
vn 0.290334 0.956925 0.000000
vn 0.290334 0.956925 0.000000
vn 0.290334 0.956925 0.000000
vn 0.290334 0.956925 0.000000
vn -0.290333 -0.956926 0.000000
vn -0.290333 -0.956926 0.000000
vn -0.290333 -0.956926 0.000000
vn -0.290333 -0.956926 0.000000
vn -0.956927 0.290330 0.000000
vn -0.956927 0.290330 0.000000
vn -0.956927 0.290329 0.000000
vn -0.956927 0.290330 0.000000
vn -0.956927 0.290330 0.000000
vn -0.956927 0.290329 0.000000
vn -0.956927 0.290330 0.000000
vn -0.956927 0.290330 0.000000
vn 0.956925 -0.290335 -0.000000
vn 0.956925 -0.290335 -0.000000
vn 0.956925 -0.290335 -0.000000
vn 0.956925 -0.290335 -0.000000
vn 0.956925 -0.290335 -0.000000
vn 0.956925 -0.290335 -0.000000
vn 0.956925 -0.290335 -0.000000
vn 0.956925 -0.290335 -0.000000
vn -0.205296 -0.676648 0.707108
vn -0.205296 -0.676648 0.707108
vn -0.205296 -0.676648 0.707108
vn -0.205296 -0.676648 0.707108
vn 0.205298 0.676649 0.707106
vn 0.205298 0.676649 0.707106
vn 0.205298 0.676649 0.707106
vn 0.205298 0.676649 0.707106
vn -0.205297 -0.676648 -0.707108
vn -0.205297 -0.676647 -0.707108
vn -0.205297 -0.676648 -0.707108
vn -0.205297 -0.676647 -0.707108
vn 0.205298 0.676649 -0.707106
vn 0.205298 0.676649 -0.707106
vn 0.205298 0.676649 -0.707106
vn 0.205298 0.676649 -0.707106
vn -0.000000 0.000000 1.000000
vn -0.000000 0.000000 1.000000
vn -0.000000 0.000000 1.000000
vn -0.000000 0.000000 1.000000
vn 0.000000 0.000000 -1.000000
vn 0.000000 0.000000 -1.000000
vn 0.000000 0.000000 -1.000000
vn 0.000000 0.000000 -1.000000
vn 0.290335 -0.956925 0.000000
vn 0.290335 -0.956925 0.000000
vn 0.290335 -0.956925 0.000000
vn 0.290335 -0.956925 0.000000
vn -0.290335 0.956925 0.000000
vn -0.290335 0.956925 0.000000
vn -0.290335 0.956925 0.000000
vn -0.290335 0.956925 0.000000
vn 0.956924 0.290337 0.000000
vn 0.956924 0.290337 0.000000
vn 0.956924 0.290337 0.000000
vn 0.956924 0.290337 0.000000
vn 0.956924 0.290337 0.000000
vn 0.956924 0.290337 0.000000
vn 0.956924 0.290337 0.000000
vn 0.956924 0.290337 0.000000
vn -0.956925 -0.290337 0.000000
vn -0.956924 -0.290337 0.000000
vn -0.956924 -0.290337 0.000000
vn -0.956924 -0.290337 0.000000
vn -0.956925 -0.290337 0.000000
vn -0.956925 -0.290337 0.000000
vn -0.956924 -0.290337 0.000000
vn -0.956924 -0.290337 0.000000
vn -0.205299 0.676658 0.707097
vn -0.205299 0.676658 0.707097
vn -0.205299 0.676658 0.707097
vn -0.205299 0.676658 0.707097
vn 0.205299 -0.676657 0.707098
vn 0.205299 -0.676657 0.707098
vn 0.205299 -0.676657 0.707098
vn 0.205299 -0.676657 0.707098
vn -0.205299 0.676652 -0.707102
vn -0.205299 0.676652 -0.707102
vn -0.205299 0.676652 -0.707102
vn -0.205299 0.676652 -0.707102
vn 0.205297 -0.676652 -0.707103
vn 0.205297 -0.676652 -0.707103
vn 0.205297 -0.676652 -0.707103
vn 0.205297 -0.676652 -0.707103
s off
g pCube4
usemtl initialShadingGroup
f 4/65/1 2/66/2 6/67/3 8/68/4
f 12/69/5 10/70/6 13/71/7 16/72/8
f 7/33/9 5/34/10 15/35/11 14/36/12
f 9/41/13 11/42/14 1/43/15 3/44/16
f 3/1/17 4/2/18 8/3/19 7/4/20 14/5/21 13/6/22 10/7/23 9/8/24
f 11/9/25 12/10/26 16/11/27 15/12/28 5/13/29 6/14/30 2/15/31 1/16/32
f 1/43/33 2/47/34 4/48/35 3/44/36
f 6/37/37 5/34/38 7/33/39 8/38/40
f 9/41/41 10/45/42 12/46/43 11/42/44
f 13/39/45 14/36/46 15/35/47 16/40/48
f 20/73/49 18/74/50 22/75/51 24/76/52
f 28/77/53 26/78/54 29/79/55 32/80/56
f 23/49/57 21/50/58 31/51/59 30/52/60
f 25/57/61 27/58/62 17/59/63 19/60/64
f 19/17/65 20/18/66 24/19/67 23/20/68 30/21/69 29/22/70 26/23/71 25/24/72
f 27/25/73 28/26/74 32/27/75 31/28/76 21/29/77 22/30/78 18/31/79 17/32/80
f 17/59/81 18/63/82 20/64/83 19/60/84
f 22/53/85 21/50/86 23/49/87 24/54/88
f 25/57/89 26/61/90 28/62/91 27/58/92
f 29/55/93 30/52/94 31/51/95 32/56/96
