# This file uses centimeters as units for non-parametric coordinates.

mtllib Stone_Wall_Corner.mtl
g default
v 81.516643 -12.607940 28.056051
v 81.516643 -12.607940 -5.156080
v 71.927974 -12.607940 28.056051
v 71.927974 -12.607940 -5.156080
v 71.809673 -12.607940 4.794332
v 104.778362 -12.607940 4.794332
v 71.809673 -12.607940 -4.794332
v 104.778362 -12.607940 -4.794332
v 70.987117 14.310108 6.021552
v 71.466503 14.310108 6.500937
v 71.466503 14.789494 6.021552
v 82.175060 14.789494 6.021552
v 82.175060 14.310108 6.500937
v 82.654445 14.310108 6.021552
v 70.987117 14.310108 -6.021552
v 71.466503 14.789494 -6.021552
v 71.466503 14.310108 -6.500937
v 82.175060 14.310108 -6.500937
v 82.175060 14.789494 -6.021552
v 82.654445 14.310108 -6.021552
v 70.987117 -12.632576 6.021552
v 71.466503 -12.632576 6.500937
v 82.654445 -12.632576 6.021552
v 82.175060 -12.632576 6.500937
v 70.987117 -12.632576 -6.021552
v 71.466503 -12.632576 -6.500937
v 82.654445 -12.632576 -6.021552
v 82.175060 -12.632576 -6.500937
v 81.037258 12.607940 28.056051
v 81.516643 12.128554 28.056051
v 81.037258 12.607940 -5.156080
v 81.516643 12.128554 -5.156080
v 71.927974 12.128554 28.056051
v 72.407360 12.607940 28.056051
v 71.927974 12.128554 -5.156080
v 72.407360 12.607940 -5.156080
v 71.809673 12.607940 4.314947
v 71.809673 12.128554 4.794332
v 104.778362 12.607940 4.314947
v 104.778362 12.128554 4.794332
v 71.809673 12.128554 -4.794332
v 71.809673 12.607940 -4.314947
v 104.778362 12.128554 -4.794332
v 104.778362 12.607940 -4.314947
vt 0.651305 0.663765
vt 0.991808 0.663905
vt 0.991767 0.762211
vt 0.651265 0.762071
vt 0.301485 0.245928
vt 0.639492 0.246067
vt 0.639451 0.344374
vt 0.301444 0.344235
vt 0.155240 0.863908
vt 0.160153 0.868824
vt 0.160108 0.978612
vt 0.155191 0.983525
vt 0.031721 0.983474
vt 0.026808 0.978558
vt 0.026853 0.868770
vt 0.031770 0.863857
vt 0.297483 0.530084
vt 0.297443 0.628391
vt 0.043835 0.628286
vt 0.038922 0.623369
vt 0.038959 0.534893
vt 0.043876 0.529980
vt 0.038963 0.519801
vt 0.039004 0.421495
vt 0.292611 0.421599
vt 0.297524 0.426516
vt 0.297488 0.514993
vt 0.292571 0.519905
vt 0.297397 0.745029
vt 0.297357 0.843335
vt 0.043749 0.843231
vt 0.038836 0.838314
vt 0.038873 0.749837
vt 0.043790 0.744924
vt 0.297440 0.638568
vt 0.297400 0.736874
vt 0.043792 0.736770
vt 0.038879 0.731853
vt 0.038916 0.643376
vt 0.043833 0.638463
vt 0.649545 0.013290
vt 0.990048 0.013430
vt 0.989943 0.267038
vt 0.991813 0.651666
vt 0.651310 0.651526
vt 0.651414 0.397919
vt 0.991917 0.398059
vt 0.991922 0.387011
vt 0.651419 0.386871
vt 0.651455 0.298394
vt 0.301290 0.725063
vt 0.639297 0.725202
vt 0.639193 0.978810
vt 0.301440 0.355128
vt 0.639447 0.355267
vt 0.639343 0.608874
vt 0.301336 0.608735
vt 0.301331 0.619628
vt 0.639338 0.619767
vt 0.639302 0.708244
vt 0.797921 0.853510
vt 0.674451 0.853459
vt 0.363317 0.098117
vt 0.639544 0.098231
vt 0.639542 0.103146
vt 0.363315 0.103032
vt 0.358355 0.212818
vt 0.797872 0.973128
vt 0.363270 0.212820
vt 0.639494 0.217849
vt 0.349645 0.013169
vt 0.073419 0.013056
vt 0.674449 0.858374
vt 0.674404 0.968162
vt 0.669489 0.968160
vt 0.349596 0.132787
vt 0.073370 0.132673
vt 0.073372 0.127758
vt 0.649439 0.271812
vt 0.649441 0.266898
vt 0.989941 0.271953
vt 0.991960 0.293619
vt 0.991958 0.298534
vt 0.651457 0.293479
vt 0.301184 0.983585
vt 0.301186 0.978670
vt 0.639191 0.983724
vt 0.301293 0.713019
vt 0.301295 0.708104
vt 0.639300 0.713158
vt 0.639496 0.212934
vt 0.797919 0.858425
vt 0.797874 0.968213
vt 0.349643 0.018084
vt 0.349598 0.127872
vt 0.073417 0.017970
vt 0.021414 0.145365
vt 0.297640 0.145479
vt 0.297589 0.268949
vt 0.021363 0.268835
vt 0.021356 0.285884
vt 0.297582 0.285997
vt 0.297531 0.409468
vt 0.021305 0.409354
vt 0.358400 0.103030
vt 0.363268 0.217735
vt 0.669534 0.858372
vt 0.674402 0.973077
vn 1.000000 0.000000 0.000000
vn 1.000000 0.000000 0.000000
vn 1.000000 0.000000 0.000000
vn 1.000000 0.000000 0.000000
vn 0.000000 1.000000 0.000000
vn 0.000000 1.000000 0.000000
vn 0.000000 1.000000 0.000000
vn 0.000000 1.000000 0.000000
vn -1.000000 0.000000 0.000000
vn -1.000000 0.000000 0.000000
vn -1.000000 0.000000 0.000000
vn -1.000000 0.000000 0.000000
vn 0.000000 -1.000000 0.000000
vn 0.000000 -1.000000 0.000000
vn 0.000000 -1.000000 0.000000
vn 0.000000 -1.000000 0.000000
vn 0.000000 0.000000 -1.000000
vn 0.000000 0.000000 -1.000000
vn 0.000000 0.000000 -1.000000
vn 0.000000 0.000000 -1.000000
vn 0.000000 0.000000 -1.000000
vn 0.000000 0.000000 -1.000000
vn 0.000000 0.000000 1.000000
vn 0.000000 0.000000 1.000000
vn 0.000000 0.000000 1.000000
vn 0.000000 0.000000 1.000000
vn 0.000000 0.000000 1.000000
vn 0.000000 0.000000 1.000000
vn 0.000000 0.000000 1.000000
vn 0.000000 0.000000 1.000000
vn 0.000000 0.000000 1.000000
vn 0.000000 0.000000 1.000000
vn 0.000000 1.000000 0.000000
vn 0.000000 1.000000 0.000000
vn 0.000000 1.000000 0.000000
vn 0.000000 1.000000 0.000000
vn 0.000000 0.000000 -1.000000
vn 0.000000 0.000000 -1.000000
vn 0.000000 0.000000 -1.000000
vn 0.000000 0.000000 -1.000000
vn 0.000000 -1.000000 0.000000
vn 0.000000 -1.000000 0.000000
vn 0.000000 -1.000000 0.000000
vn 0.000000 -1.000000 0.000000
vn 1.000000 -0.000000 0.000000
vn 1.000000 -0.000000 0.000000
vn 1.000000 -0.000000 0.000000
vn 1.000000 -0.000000 0.000000
vn 1.000000 -0.000000 0.000000
vn 1.000000 -0.000000 0.000000
vn -1.000000 0.000000 0.000000
vn -1.000000 0.000000 0.000000
vn -1.000000 0.000000 0.000000
vn -1.000000 0.000000 0.000000
vn -1.000000 0.000000 0.000000
vn -1.000000 0.000000 0.000000
vn 0.000000 -1.000000 0.000000
vn 0.000000 -1.000000 0.000000
vn 0.000000 -1.000000 0.000000
vn 0.000000 -1.000000 0.000000
vn 0.000000 -1.000000 0.000000
vn 0.000000 -1.000000 0.000000
vn 0.000000 -1.000000 0.000000
vn 0.000000 -1.000000 0.000000
vn -0.707105 0.707108 0.000000
vn -0.707105 0.707108 0.000000
vn -0.707105 0.707108 0.000000
vn -0.707105 0.707108 0.000000
vn -0.707107 0.000000 0.707107
vn -0.707107 0.000000 0.707107
vn -0.707107 0.000000 0.707107
vn -0.707107 0.000000 0.707107
vn 0.000000 0.707108 0.707106
vn 0.000000 0.707108 0.707106
vn 0.000000 0.707108 0.707106
vn 0.000000 0.707108 0.707106
vn 0.707105 0.707108 0.000000
vn 0.707105 0.707108 0.000000
vn 0.707105 0.707108 0.000000
vn 0.707105 0.707108 0.000000
vn 0.707107 0.000000 0.707107
vn 0.707107 0.000000 0.707107
vn 0.707107 0.000000 0.707107
vn 0.707107 0.000000 0.707107
vn -0.707107 0.000000 -0.707107
vn -0.707107 0.000000 -0.707107
vn -0.707107 0.000000 -0.707107
vn -0.707107 0.000000 -0.707107
vn 0.000000 0.707108 -0.707106
vn 0.000000 0.707108 -0.707106
vn 0.000000 0.707108 -0.707106
vn 0.000000 0.707108 -0.707106
vn 0.707107 0.000000 -0.707107
vn 0.707107 0.000000 -0.707107
vn 0.707107 0.000000 -0.707107
vn 0.707107 0.000000 -0.707107
vn 0.707107 0.707106 0.000000
vn 0.707107 0.707106 0.000000
vn 0.707107 0.707106 0.000000
vn 0.707107 0.707106 0.000000
vn -0.707107 0.707106 0.000000
vn -0.707107 0.707106 0.000000
vn -0.707107 0.707106 0.000000
vn -0.707107 0.707106 0.000000
vn 0.000000 0.707107 0.707106
vn 0.000000 0.707107 0.707106
vn 0.000000 0.707107 0.707106
vn 0.000000 0.707107 0.707106
vn 0.000000 0.707107 -0.707106
vn 0.000000 0.707107 -0.707106
vn 0.000000 0.707107 -0.707106
vn 0.000000 0.707107 -0.707106
vn 0.000000 0.000000 1.000000
vn 0.000000 0.000000 1.000000
vn 0.000000 0.000000 1.000000
vn 0.000000 0.000000 1.000000
vn 0.000000 1.000000 0.000000
vn 0.000000 1.000000 0.000000
vn 0.000000 1.000000 0.000000
vn 0.000000 1.000000 0.000000
vn 0.000000 0.000000 -1.000000
vn 0.000000 0.000000 -1.000000
vn 0.000000 0.000000 -1.000000
vn 0.000000 0.000000 -1.000000
vn 1.000000 0.000000 0.000000
vn 1.000000 0.000000 0.000000
vn 1.000000 0.000000 0.000000
vn 1.000000 0.000000 0.000000
vn -1.000000 0.000000 0.000000
vn -1.000000 0.000000 0.000000
vn -1.000000 0.000000 0.000000
vn -1.000000 0.000000 0.000000
vn -0.577354 0.577341 0.577355
vn -0.577354 0.577341 0.577355
vn -0.577354 0.577341 0.577355
vn 0.577348 0.577354 0.577349
vn 0.577348 0.577354 0.577349
vn 0.577348 0.577354 0.577349
vn -0.577354 0.577341 -0.577355
vn -0.577354 0.577341 -0.577355
vn -0.577354 0.577341 -0.577355
vn 0.577348 0.577354 -0.577349
vn 0.577348 0.577354 -0.577349
vn 0.577348 0.577354 -0.577349
s off
g stone_wall_corner
usemtl initialShadingGroup
f 1/41/1 2/42/2 32/43/3 30/80/4
f 29/48/5 31/49/6 36/50/7 34/83/8
f 33/44/9 35/45/10 4/46/11 3/47/12
f 3/1/13 4/2/14 2/3/15 1/4/16
f 2/23/17 4/24/18 35/25/19 36/26/20 31/27/21 32/28/22
f 3/17/23 1/18/24 30/19/25 29/20/26 34/21/27 33/22/28
f 5/51/29 6/52/30 40/53/31 38/86/32
f 37/58/33 39/59/34 44/60/35 42/89/36
f 41/54/37 43/55/38 8/56/39 7/57/40
f 7/5/41 8/6/42 6/7/43 5/8/44
f 6/35/45 8/36/46 43/37/47 44/38/48 39/39/49 40/40/50
f 7/29/51 5/30/52 38/31/53 37/32/54 42/33/55 41/34/56
f 25/9/57 26/10/58 28/11/59 27/12/60 23/13/61 24/14/62 22/15/63 21/16/64
f 9/61/65 11/92/66 16/73/67 15/62/68
f 10/66/69 9/63/70 21/64/71 22/65/72
f 11/105/73 10/66/74 13/69/75 12/67/76
f 12/93/77 14/68/78 20/108/79 19/74/80
f 14/106/81 13/69/82 24/91/83 23/70/84
f 15/71/85 17/94/86 26/96/87 25/72/88
f 17/107/89 16/73/90 19/74/91 18/75/92
f 18/95/93 20/76/94 27/77/95 28/78/96
f 29/79/97 30/80/98 32/43/99 31/81/100
f 33/82/101 34/83/102 36/50/103 35/84/104
f 37/85/105 38/86/106 40/53/107 39/87/108
f 41/88/109 42/89/110 44/60/111 43/90/112
f 10/66/113 22/65/114 24/91/115 13/69/116
f 11/92/117 12/93/118 19/74/119 16/73/120
f 17/94/121 18/95/122 28/78/123 26/96/124
f 14/97/125 23/98/126 27/99/127 20/100/128
f 15/101/129 25/102/130 21/103/131 9/104/132
f 9/63/133 10/66/134 11/105/135
f 12/67/136 13/69/137 14/106/138
f 15/62/139 16/73/140 17/107/141
f 18/75/142 19/74/143 20/108/144
