# Blender v2.82 (sub 7) OBJ File: 'Pillar.blend'
# www.blender.org
mtllib Pillar.mtl
o Plane
v -0.962308 0.000000 1.000000
v -1.000000 0.000000 0.962308
v 1.000000 0.000000 0.962308
v 0.962308 0.000000 1.000000
v -1.000000 0.000000 -0.962308
v -0.962308 0.000000 -1.000000
v 0.962308 0.000000 -1.000000
v 1.000000 0.000000 -0.962308
v -1.000000 0.524052 0.962308
v -0.962308 0.524052 1.000000
v -0.962308 0.561744 0.962308
v 0.962308 0.524052 1.000000
v 1.000000 0.524052 0.962308
v 0.962308 0.561744 0.962308
v -0.962308 0.561744 -0.962308
v -0.962308 0.524052 -1.000000
v -1.000000 0.524052 -0.962308
v 1.000000 0.524052 -0.962308
v 0.962308 0.524052 -1.000000
v 0.962308 0.561744 -0.962308
v -0.655744 0.561744 0.693468
v -0.693468 0.561744 0.655744
v -0.720121 0.561744 0.720121
v 0.693468 0.561744 0.655744
v 0.655744 0.561744 0.693468
v 0.720121 0.561744 0.720121
v -0.693468 0.561744 -0.655744
v -0.655744 0.561744 -0.693468
v -0.720121 0.561744 -0.720121
v 0.655744 0.561744 -0.693468
v 0.693468 0.561744 -0.655744
v 0.720121 0.561744 -0.720121
v -0.494723 5.388380 0.456999
v -0.456999 5.388380 0.494723
v -0.521375 5.388380 0.521375
v 0.456999 5.388380 0.494723
v 0.494723 5.388380 0.456999
v 0.521375 5.388380 0.521375
v -0.456999 5.388380 -0.494723
v -0.494723 5.388380 -0.456999
v -0.521375 5.388380 -0.521375
v 0.494723 5.388380 -0.456999
v 0.456999 5.388380 -0.494723
v 0.521375 5.388380 -0.521375
v -0.784499 5.426072 0.746806
v -0.746806 5.388380 0.746806
v -0.746806 5.426072 0.784499
v 0.746806 5.426072 0.784499
v 0.746806 5.388380 0.746806
v 0.784499 5.426072 0.746806
v -0.784499 5.426072 -0.746806
v -0.746806 5.426072 -0.784499
v -0.746806 5.388380 -0.746806
v 0.784499 5.426072 -0.746806
v 0.746806 5.388380 -0.746806
v 0.746806 5.426072 -0.784499
v -0.784499 5.794413 0.746806
v -0.746806 5.794413 0.784499
v -0.746806 5.832105 0.746806
v 0.746806 5.794413 0.784499
v 0.784499 5.794413 0.746806
v 0.746806 5.832105 0.746806
v -0.784499 5.794413 -0.746806
v -0.746806 5.832105 -0.746806
v -0.746806 5.794413 -0.784499
v 0.784499 5.794413 -0.746806
v 0.746806 5.794413 -0.784499
v 0.746806 5.832105 -0.746806
v 0.594096 2.975062 0.556372
v 0.556372 2.975062 0.594096
v -0.594096 2.975062 0.556372
v -0.556372 2.975062 0.594096
v 0.556372 2.975062 -0.594096
v 0.594096 2.975062 -0.556372
v -0.556372 2.975062 -0.594096
v -0.594096 2.975062 -0.556372
v 0.589005 3.098680 0.551281
v -0.551281 3.098680 0.589005
v 0.551281 3.098680 -0.589005
v -0.589005 3.098680 -0.551281
v 0.551281 3.098680 0.589005
v -0.589005 3.098680 0.551281
v 0.589005 3.098680 -0.551281
v -0.551281 3.098680 -0.589005
v 0.648675 0.733420 0.686399
v -0.686399 0.733420 0.648675
v 0.686399 0.733420 -0.648675
v -0.648675 0.733420 -0.686399
v 0.686399 0.733420 0.648675
v -0.648675 0.733420 0.686399
v 0.648675 0.733420 -0.686399
v -0.686399 0.733420 -0.648675
v 0.682123 0.837261 0.644399
v -0.644399 0.837261 0.682123
v 0.644399 0.837261 -0.682123
v -0.682123 0.837261 -0.644399
v 0.644399 0.837261 0.682123
v -0.682123 0.837261 0.644399
v 0.682123 0.837261 -0.644399
v -0.644399 0.837261 -0.682123
v 0.517227 4.841871 0.479502
v -0.479502 4.841871 0.517227
v 0.479502 4.841871 -0.517227
v -0.517227 4.841871 -0.479502
v 0.479502 4.841871 0.517227
v -0.517227 4.841871 0.479502
v 0.517227 4.841871 -0.479502
v -0.479502 4.841871 -0.517227
v 0.484325 4.724754 0.522049
v -0.522049 4.724754 0.484325
v 0.522049 4.724754 -0.484325
v -0.484325 4.724754 -0.522049
v 0.522049 4.724754 0.484325
v -0.484325 4.724754 0.522049
v 0.484325 4.724754 -0.522049
v -0.522049 4.724754 -0.484325
v 0.468417 4.730770 0.434568
v 0.464090 4.835855 0.430241
v -0.434568 4.730770 0.468417
v -0.430241 4.835855 0.464090
v 0.434568 4.730770 -0.468417
v 0.430241 4.835855 -0.464090
v -0.468417 4.730770 -0.434568
v -0.464090 4.835855 -0.430241
v -0.430241 4.835855 -0.464090
v -0.464090 4.835855 0.430241
v 0.464090 4.835855 -0.430241
v 0.430241 4.835855 0.464090
v 0.434568 4.730770 0.468417
v -0.468417 4.730770 0.434568
v 0.468417 4.730770 -0.434568
v -0.434568 4.730770 -0.468417
v 0.472346 3.089829 0.504668
v 0.476707 2.983912 0.509030
v -0.504668 3.089829 0.472346
v -0.509030 2.983912 0.476707
v 0.504668 3.089829 -0.472346
v 0.509030 2.983912 -0.476707
v -0.472346 3.089829 -0.504668
v -0.476707 2.983912 -0.509030
v -0.509030 2.983912 -0.476707
v 0.476707 2.983912 -0.509030
v -0.476707 2.983912 0.509030
v 0.509030 2.983912 0.476707
v 0.504668 3.089829 0.472346
v -0.472346 3.089829 0.504668
v 0.472346 3.089829 -0.504668
v -0.504668 3.089829 -0.472346
v 0.553633 0.829948 0.586044
v 0.557307 0.740733 0.589718
v -0.586044 0.829948 0.553633
v -0.589718 0.740733 0.557307
v 0.586044 0.829948 -0.553633
v 0.589718 0.740733 -0.557307
v -0.553633 0.829948 -0.586044
v -0.557307 0.740733 -0.589718
v -0.589718 0.740733 -0.557307
v 0.589718 0.740733 0.557307
v 0.557307 0.740733 -0.589718
v -0.557307 0.740733 0.589718
v 0.586044 0.829948 0.553633
v -0.553633 0.829948 0.586044
v 0.553633 0.829948 -0.586044
v -0.586044 0.829948 -0.553633
vt 0.781511 0.018952
vt 0.981047 0.018953
vt 0.981047 0.073284
vt 0.781511 0.073284
vt 0.196681 0.184038
vt 0.092299 0.180864
vt 0.080402 0.123729
vt 0.208318 0.117044
vt 0.544069 0.018952
vt 0.743606 0.018953
vt 0.743606 0.073284
vt 0.544069 0.073284
vt 0.022860 0.943386
vt 0.018952 0.939478
vt 0.018953 0.739942
vt 0.022860 0.736034
vt 0.222397 0.736034
vt 0.226305 0.739942
vt 0.226305 0.939478
vt 0.222397 0.943386
vt 0.229583 0.631308
vt 0.029964 0.633545
vt 0.052387 0.608069
vt 0.059424 0.604222
vt 0.202323 0.605316
vt 0.208789 0.608700
vt 0.499931 0.693134
vt 0.287586 0.698133
vt 0.293504 0.639205
vt 0.491405 0.637237
vt 0.459234 0.184044
vt 0.354849 0.180872
vt 0.342951 0.123734
vt 0.470871 0.117048
vt 0.492137 0.631311
vt 0.292525 0.633551
vt 0.314947 0.608076
vt 0.321984 0.604229
vt 0.464878 0.605321
vt 0.471344 0.608705
vt 0.544069 0.078811
vt 0.743606 0.078811
vt 0.718497 0.103920
vt 0.711822 0.106683
vt 0.575852 0.106683
vt 0.569178 0.103920
vt 0.781511 0.078811
vt 0.981047 0.078811
vt 0.955939 0.103920
vt 0.949264 0.106683
vt 0.813294 0.106683
vt 0.806620 0.103920
vt 0.589783 0.654514
vt 0.596457 0.651751
vt 0.691216 0.651751
vt 0.697891 0.654514
vt 0.721263 0.677886
vt 0.566411 0.677886
vt 0.594124 0.595043
vt 0.693550 0.595043
vt 0.831566 0.595043
vt 0.930991 0.595043
vt 0.928658 0.651751
vt 0.833899 0.651751
vt 0.215992 0.111859
vt 0.072416 0.120031
vt 0.047790 0.095933
vt 0.238150 0.081232
vt 0.436367 0.890890
vt 0.281515 0.890890
vt 0.281515 0.736038
vt 0.436367 0.736038
vt 0.827224 0.654514
vt 0.935333 0.654514
vt 0.958704 0.677886
vt 0.803853 0.677886
vt 0.236045 0.074320
vt 0.048602 0.088557
vt 0.044367 0.040566
vt 0.231809 0.026328
vt 0.478546 0.111862
vt 0.334964 0.120036
vt 0.310338 0.095938
vt 0.500704 0.081234
vt 0.498598 0.074322
vt 0.311150 0.088562
vt 0.306913 0.040569
vt 0.494362 0.026328
vt 0.566411 0.683413
vt 0.721263 0.683413
vt 0.721263 0.721601
vt 0.566411 0.721601
vt 0.803853 0.683413
vt 0.958704 0.683413
vt 0.958704 0.721601
vt 0.803853 0.721601
vt 0.030943 0.639199
vt 0.025195 0.637803
vt 0.497024 0.635516
vt 0.234471 0.635512
vt 0.228851 0.637234
vt 0.287756 0.637810
vt 0.054103 0.601012
vt 0.469779 0.602520
vt 0.207225 0.602515
vt 0.316663 0.601019
vt 0.074514 0.127091
vt 0.477315 0.119915
vt 0.214762 0.119911
vt 0.337063 0.127097
vt 0.041568 0.090567
vt 0.506164 0.074938
vt 0.243610 0.074936
vt 0.304115 0.090572
vt 0.036802 0.039950
vt 0.042261 0.033655
vt 0.501396 0.024319
vt 0.495174 0.018952
vt 0.232621 0.018952
vt 0.238843 0.024319
vt 0.299348 0.039953
vt 0.304807 0.033658
vt 0.281515 0.697498
vt 0.506164 0.692164
vt 0.018952 0.697494
vt 0.025024 0.698129
vt 0.243610 0.692162
vt 0.237377 0.693132
vt 0.463795 0.185625
vt 0.065365 0.585685
vt 0.061248 0.583763
vt 0.350017 0.182383
vt 0.201807 0.587697
vt 0.197525 0.589548
vt 0.958704 0.727127
vt 0.803853 0.727127
vt 0.721263 0.727127
vt 0.566411 0.727127
vt 0.196043 0.348930
vt 0.200782 0.350081
vt 0.195714 0.358971
vt 0.191016 0.357766
vt 0.326128 0.555952
vt 0.338838 0.374703
vt 0.343487 0.376101
vt 0.330573 0.555239
vt 0.080934 0.376089
vt 0.076284 0.374692
vt 0.081657 0.365804
vt 0.086264 0.367179
vt 0.459625 0.559027
vt 0.457995 0.379305
vt 0.462439 0.378326
vt 0.464228 0.560109
vt 0.814470 0.153796
vt 0.948088 0.153796
vt 0.938961 0.375623
vt 0.823596 0.375623
vt 0.577028 0.153796
vt 0.710646 0.153796
vt 0.701519 0.375623
vt 0.586155 0.375623
vt 0.197071 0.559020
vt 0.068014 0.555229
vt 0.195440 0.379295
vt 0.091886 0.205540
vt 0.082828 0.345531
vt 0.078261 0.346281
vt 0.087152 0.204210
vt 0.200529 0.207305
vt 0.196014 0.208194
vt 0.086957 0.355634
vt 0.082372 0.356315
vt 0.344210 0.365815
vt 0.348817 0.367191
vt 0.199884 0.378315
vt 0.191042 0.369321
vt 0.195496 0.368465
vt 0.345382 0.345542
vt 0.458598 0.348939
vt 0.453570 0.357776
vt 0.349511 0.355645
vt 0.327924 0.585693
vt 0.460080 0.589554
vt 0.711089 0.124497
vt 0.576585 0.124497
vt 0.948531 0.124497
vt 0.814027 0.124497
vt 0.464361 0.587702
vt 0.323807 0.583771
vt 0.458653 0.569894
vt 0.454069 0.568834
vt 0.067459 0.574436
vt 0.071887 0.575832
vt 0.063569 0.555942
vt 0.201675 0.560102
vt 0.823880 0.143806
vt 0.938678 0.143806
vt 0.191786 0.578376
vt 0.196099 0.577383
vt 0.586439 0.143806
vt 0.701236 0.143806
vt 0.330018 0.574444
vt 0.334446 0.575840
vt 0.335099 0.566380
vt 0.454341 0.578382
vt 0.458653 0.577389
vt 0.201241 0.185619
vt 0.087467 0.182376
vt 0.463083 0.207312
vt 0.458567 0.208201
vt 0.455709 0.201685
vt 0.460534 0.200788
vt 0.599231 0.589499
vt 0.688442 0.589499
vt 0.831066 0.573000
vt 0.931492 0.573000
vt 0.926333 0.578595
vt 0.836224 0.578595
vt 0.836673 0.589499
vt 0.925884 0.589499
vt 0.593624 0.573000
vt 0.694050 0.573000
vt 0.688891 0.578595
vt 0.598782 0.578595
vt 0.460823 0.191201
vt 0.455764 0.189839
vt 0.354436 0.205549
vt 0.586682 0.404272
vt 0.700992 0.404272
vt 0.824124 0.404272
vt 0.938434 0.404272
vt 0.463336 0.350091
vt 0.340815 0.346292
vt 0.349702 0.204218
vt 0.357765 0.199714
vt 0.358071 0.187710
vt 0.353085 0.188771
vt 0.352699 0.198379
vt 0.193155 0.201679
vt 0.095214 0.199706
vt 0.095521 0.187703
vt 0.193211 0.189833
vt 0.198269 0.191195
vt 0.197980 0.200782
vt 0.090149 0.198371
vt 0.090535 0.188764
vt 0.344925 0.356327
vt 0.453596 0.369332
vt 0.458269 0.358981
vt 0.458051 0.368475
vt 0.831856 0.384490
vt 0.930702 0.384490
vt 0.930250 0.395480
vt 0.832308 0.395480
vt 0.594414 0.384490
vt 0.693260 0.384490
vt 0.692808 0.395480
vt 0.594866 0.395480
vt 0.196099 0.569888
vt 0.191514 0.568827
vt 0.072540 0.566372
vt 0.068104 0.566950
vt 0.586058 0.134549
vt 0.701617 0.134549
vt 0.823500 0.134549
vt 0.939058 0.134549
vt 0.330663 0.566959
vn 0.0000 0.0000 1.0000
vn -0.9992 0.0411 0.0000
vn 0.0000 0.0000 -1.0000
vn 0.0000 -1.0000 0.0000
vn 0.0000 1.0000 0.0000
vn 1.0000 0.0000 0.0000
vn 0.9992 0.0411 0.0000
vn 0.0000 0.0411 -0.9992
vn 0.0000 0.0411 0.9992
vn -1.0000 0.0000 0.0000
vn -0.5773 0.5774 0.5774
vn 0.5773 0.5774 0.5774
vn -0.5773 0.5774 -0.5774
vn 0.5773 0.5774 -0.5774
vn -0.5774 -0.5774 0.5773
vn 0.5774 -0.5774 0.5773
vn -0.5774 -0.5774 -0.5773
vn 0.5774 -0.5774 -0.5773
vn -0.7071 0.7071 0.0000
vn 0.0000 0.7071 0.7071
vn 0.7071 0.7071 0.0000
vn 0.0000 0.7071 -0.7071
vn 0.7071 0.0000 -0.7071
vn 0.7071 0.0000 0.7071
vn -0.7071 0.0000 0.7071
vn -0.7071 0.0000 -0.7071
vn 0.7059 0.0581 0.7059
vn -0.7059 0.0581 0.7059
vn 0.7059 0.0581 -0.7059
vn -0.7059 0.0581 -0.7059
vn -0.7071 -0.7071 0.0000
vn 0.0000 -0.7071 0.7071
vn 0.7071 -0.7071 0.0000
vn 0.0000 -0.7071 -0.7071
vn -0.0540 -0.9971 -0.0540
vn -0.0536 0.9971 0.0536
vn -0.0540 -0.9971 0.0540
vn 0.0536 0.9971 -0.0536
vn -0.1044 -0.9945 0.0000
vn -0.0536 0.9971 -0.0536
vn 0.1044 -0.9945 0.0000
vn -0.1035 0.9946 0.0000
vn 0.0391 -0.9985 0.0391
vn -0.0388 0.9985 0.0388
vn 0.0000 -0.9971 0.0759
vn -0.0388 0.9985 -0.0388
vn 0.0000 -0.9971 -0.0759
vn 0.0388 0.9985 -0.0388
vn 0.0759 -0.9971 0.0000
vn 0.0388 0.9985 0.0388
vn 0.0580 0.9966 0.0580
vn 0.0000 -0.9937 -0.1125
vn 0.0000 0.9938 0.1115
vn 0.0000 -0.9937 0.1125
vn 0.0000 0.9938 -0.1115
vn 0.0585 -0.9966 0.0585
vn 0.1115 0.9938 0.0000
vn 0.0585 -0.9966 -0.0585
vn 0.1125 -0.9937 0.0000
vn 0.0580 0.9966 -0.0580
vn -0.1125 -0.9937 0.0000
vn -0.0580 0.9966 -0.0580
vn -0.0585 -0.9966 -0.0585
vn -0.0580 0.9966 0.0580
vn -0.0585 -0.9966 0.0585
vn -0.1115 0.9938 0.0000
vn 0.0536 0.9971 0.0536
vn 0.0540 -0.9971 -0.0540
vn -0.0000 0.9946 0.1035
vn 0.0540 -0.9971 0.0540
vn 0.0000 0.9946 -0.1035
vn 0.0000 -0.9945 0.1044
vn 0.1035 0.9946 0.0000
vn 0.0000 -0.9945 -0.1044
vn -0.0754 0.9972 0.0000
vn 0.0391 -0.9985 -0.0391
vn 0.0754 0.9972 0.0000
vn -0.0391 -0.9985 0.0391
vn 0.0000 0.9972 -0.0754
vn -0.0391 -0.9985 -0.0391
vn 0.0000 0.9972 0.0754
vn -0.0759 -0.9971 0.0000
usemtl Material.001
s off
f 1/1/1 4/2/1 12/3/1 10/4/1
f 104/5/2 106/6/2 33/7/2 40/8/2
f 7/9/3 6/10/3 16/11/3 19/12/3
f 1/13/4 2/14/4 5/15/4 6/16/4 7/17/4 8/18/4 3/19/4 4/20/4
f 15/21/5 11/22/5 23/23/5 22/24/5 27/25/5 29/26/5
f 3/27/6 8/28/6 18/29/6 13/30/6
f 101/31/7 107/32/7 42/33/7 37/34/7
f 14/35/5 20/36/5 32/37/5 31/38/5 24/39/5 26/40/5
f 20/41/5 15/42/5 29/43/5 28/44/5 30/45/5 32/46/5
f 11/47/5 14/48/5 26/49/5 25/50/5 21/51/5 23/52/5
f 44/53/4 43/54/4 39/55/4 41/56/4 53/57/4 55/58/4
f 103/59/8 108/60/8 39/55/8 43/54/8
f 102/61/9 105/62/9 36/63/9 34/64/9
f 41/65/4 40/8/4 33/7/4 35/66/4 46/67/4 53/68/4
f 59/69/5 62/70/5 68/71/5 64/72/5
f 35/73/4 34/64/4 36/63/4 38/74/4 49/75/4 46/76/4
f 51/77/10 45/78/10 57/79/10 63/80/10
f 38/81/4 37/34/4 42/33/4 44/82/4 55/83/4 49/84/4
f 50/85/6 54/86/6 66/87/6 61/88/6
f 56/89/3 52/90/3 65/91/3 67/92/3
f 47/93/1 48/94/1 60/95/1 58/96/1
f 9/97/11 10/98/11 11/22/11
f 12/99/12 13/30/12 14/35/12
f 15/21/13 16/100/13 17/101/13
f 18/29/14 19/102/14 20/36/14
f 21/103/5 22/24/5 23/23/5
f 24/39/5 25/104/5 26/40/5
f 27/25/5 28/105/5 29/26/5
f 30/106/5 31/38/5 32/37/5
f 33/7/4 34/107/4 35/66/4
f 36/108/4 37/34/4 38/81/4
f 39/109/4 40/8/4 41/65/4
f 42/33/4 43/110/4 44/82/4
f 45/78/15 46/67/15 47/111/15
f 48/112/16 49/84/16 50/85/16
f 51/77/17 52/113/17 53/68/17
f 54/86/18 55/83/18 56/114/18
f 57/79/11 58/115/11 59/116/11
f 60/117/12 61/88/12 62/118/12
f 63/80/13 64/119/13 65/120/13
f 66/87/14 67/121/14 68/122/14
f 17/101/19 9/97/19 11/22/19 15/21/19
f 10/4/20 12/3/20 14/48/20 11/47/20
f 13/30/21 18/29/21 20/36/21 14/35/21
f 19/12/22 16/11/22 15/42/22 20/41/22
f 7/123/23 19/102/23 18/29/23 8/28/23
f 12/99/24 4/124/24 3/27/24 13/30/24
f 1/125/25 10/98/25 9/97/25 2/126/25
f 16/100/26 6/127/26 5/128/26 17/101/26
f 101/31/27 37/34/27 36/108/27 105/129/27
f 86/130/28 22/24/28 21/103/28 90/131/28
f 103/132/29 43/110/29 42/33/29 107/32/29
f 88/133/30 28/105/30 27/25/30 92/134/30
f 53/68/31 46/67/31 45/78/31 51/77/31
f 46/76/32 49/75/32 48/94/32 47/93/32
f 49/84/33 55/83/33 54/86/33 50/85/33
f 55/58/34 53/57/34 52/90/34 56/89/34
f 63/80/19 57/79/19 59/116/19 64/119/19
f 58/96/20 60/95/20 62/135/20 59/136/20
f 61/88/21 66/87/21 68/122/21 62/118/21
f 67/92/22 65/91/22 64/137/22 68/138/22
f 51/77/26 63/80/26 65/120/26 52/113/26
f 66/87/23 54/86/23 56/114/23 67/121/23
f 50/85/24 61/88/24 60/117/24 48/112/24
f 57/79/25 45/78/25 47/111/25 58/115/25
f 5/128/10 2/126/10 9/97/10 17/101/10
f 80/139/35 84/140/35 139/141/35 148/142/35
f 95/143/29 73/144/29 74/145/29 99/146/29
f 71/147/36 72/148/36 143/149/36 136/150/36
f 93/151/27 69/152/27 70/153/27 97/154/27
f 94/155/9 97/156/9 70/157/9 72/158/9
f 95/159/8 100/160/8 75/161/8 73/162/8
f 93/151/7 99/146/7 74/145/7 69/152/7
f 96/163/2 98/164/2 71/147/2 76/165/2
f 110/166/28 82/167/28 78/168/28 114/169/28
f 112/170/30 84/140/30 80/139/30 116/171/30
f 78/168/37 82/167/37 135/172/37 146/173/37
f 74/145/38 73/144/38 142/174/38 138/175/38
f 82/167/39 80/139/39 148/142/39 135/172/39
f 75/176/40 76/165/40 141/177/40 140/178/40
f 83/179/41 77/180/41 145/181/41 137/182/41
f 76/165/42 71/147/42 136/150/42 141/177/42
f 27/25/2 22/24/2 86/130/2 92/134/2
f 24/39/7 31/38/7 87/183/7 89/184/7
f 30/45/8 28/44/8 88/185/8 91/186/8
f 21/51/9 25/50/9 85/187/9 90/188/9
f 24/39/27 89/184/27 85/189/27 25/104/27
f 30/106/29 91/190/29 87/183/29 31/38/29
f 93/151/43 97/154/43 149/191/43 161/192/43
f 86/130/44 90/131/44 160/193/44 152/194/44
f 71/147/28 98/164/28 94/195/28 72/148/28
f 75/176/30 100/196/30 96/163/30 76/165/30
f 97/156/45 94/155/45 162/197/45 149/198/45
f 88/133/46 92/134/46 157/199/46 156/200/46
f 100/160/47 95/159/47 163/201/47 155/202/47
f 87/183/48 91/190/48 159/203/48 154/204/48
f 99/146/49 93/151/49 161/192/49 153/205/49
f 85/189/50 89/184/50 158/206/50 150/207/50
f 39/109/30 108/208/30 104/5/30 40/8/30
f 33/7/28 106/6/28 102/209/28 34/107/28
f 109/210/51 113/211/51 117/212/51 129/213/51
f 108/60/52 103/59/52 122/214/52 125/215/52
f 114/216/53 109/217/53 129/218/53 119/219/53
f 105/62/54 102/61/54 120/220/54 128/221/54
f 115/222/55 112/223/55 132/224/55 121/225/55
f 101/31/56 105/129/56 128/226/56 118/227/56
f 80/139/2 82/167/2 110/166/2 116/171/2
f 77/180/7 83/179/7 111/228/7 113/211/7
f 79/229/8 84/230/8 112/223/8 115/222/8
f 78/231/9 81/232/9 109/217/9 114/216/9
f 77/180/27 113/211/27 109/210/27 81/233/27
f 79/234/29 115/235/29 111/228/29 83/179/29
f 113/211/57 111/228/57 131/236/57 117/212/57
f 103/132/58 107/32/58 127/237/58 122/238/58
f 121/239/29 122/238/29 127/237/29 131/236/29
f 117/212/27 118/227/27 128/226/27 129/213/27
f 119/219/9 129/218/9 128/221/9 120/220/9
f 121/225/8 132/224/8 125/215/8 122/214/8
f 117/212/7 131/236/7 127/237/7 118/227/7
f 123/240/2 130/241/2 126/242/2 124/243/2
f 125/244/30 132/245/30 123/240/30 124/243/30
f 126/242/28 130/241/28 119/246/28 120/247/28
f 107/32/59 101/31/59 118/227/59 127/237/59
f 111/228/60 115/235/60 121/239/60 131/236/60
f 106/6/61 104/5/61 124/243/61 126/242/61
f 112/170/62 116/171/62 123/240/62 132/245/62
f 104/5/63 108/208/63 125/244/63 124/243/63
f 110/166/64 114/169/64 119/246/64 130/241/64
f 102/209/65 106/6/65 126/242/65 120/247/65
f 116/171/66 110/166/66 130/241/66 123/240/66
f 139/141/30 140/178/30 141/177/30 148/142/30
f 135/172/28 136/150/28 143/149/28 146/173/28
f 142/174/29 147/248/29 137/182/29 138/175/29
f 144/249/27 145/181/27 133/250/27 134/251/27
f 143/252/9 134/253/9 133/254/9 146/255/9
f 142/256/8 140/257/8 139/258/8 147/259/8
f 144/249/7 138/175/7 137/182/7 145/181/7
f 141/177/2 136/150/2 135/172/2 148/142/2
f 70/153/67 69/152/67 144/249/67 134/251/67
f 79/234/68 83/179/68 137/182/68 147/248/68
f 72/158/69 70/157/69 134/253/69 143/252/69
f 77/180/70 81/233/70 133/250/70 145/181/70
f 73/162/71 75/161/71 140/257/71 142/256/71
f 81/232/72 78/231/72 146/255/72 133/254/72
f 69/152/73 74/145/73 138/175/73 144/249/73
f 84/230/74 79/229/74 147/259/74 139/258/74
f 155/260/30 156/200/30 157/199/30 164/261/30
f 151/262/28 152/194/28 160/193/28 162/263/28
f 157/199/2 152/194/2 151/262/2 164/261/2
f 158/206/7 154/204/7 153/205/7 161/192/7
f 159/264/8 156/265/8 155/202/8 163/201/8
f 160/266/9 150/267/9 149/198/9 162/197/9
f 158/206/27 161/192/27 149/191/27 150/207/27
f 159/203/29 163/268/29 153/205/29 154/204/29
f 92/134/75 86/130/75 152/194/75 157/199/75
f 95/143/76 99/146/76 153/205/76 163/268/76
f 89/184/77 87/183/77 154/204/77 158/206/77
f 94/195/78 98/164/78 151/262/78 162/263/78
f 91/186/79 88/185/79 156/265/79 159/264/79
f 96/163/80 100/196/80 155/260/80 164/261/80
f 90/188/81 85/187/81 150/267/81 160/266/81
f 98/164/82 96/163/82 164/261/82 151/262/82
