# File produced by Open Asset Import Library (http://www.assimp.sf.net)
# (assimp v3.1.202510665)

mtllib Coffin.mtl

# vertex positions
v 1.542054 1.473157 3.436195
v 1.542054 0.068429 3.436195
v 1.885516 0.068429 3.436195
v 1.885516 1.473157 3.436195
v 2.011708 1.473157 -3.127615
v 1.631982 1.473157 -3.127615
v 2.135506 1.473157 -1.399803
v 2.718287 1.473157 -1.399803
v 1.542054 0.068429 -3.436195
v 1.542054 1.473157 -3.436195
v 1.885516 1.473157 -3.436195
v 1.885516 0.068429 -3.436195
v 2.135506 0.068429 -1.399803
v 1.631982 0.068429 -3.127615
v 2.011708 0.068429 -3.127615
v 2.718287 0.068429 -1.399803
v -0.631007 1.473157 -3.127615
v -0.631007 0.068429 -3.127615
v -1.337585 0.068429 -1.399803
v -1.337585 1.473157 -1.399803
v 1.584072 1.473157 3.093793
v 1.944479 1.473157 3.093793
v 1.944479 0.068429 3.093792
v 1.584073 0.068429 3.093792
v -0.563778 0.068429 3.093792
v -0.563778 1.473157 3.093793
v -0.504816 0.068429 3.436195
v -0.504816 1.473157 3.436195
v -0.265149 0.068429 3.436195
v -0.312288 0.068429 3.093792
v -0.930925 0.068429 -1.399803
v -0.366036 0.068429 -3.127615
v -0.265149 0.068429 -3.436195
v -0.265149 1.473157 -3.436195
v 1.631982 0.162823 -3.127615
v -0.366036 0.162823 -3.127615
v -0.930925 0.162823 -1.399803
v 2.135506 0.162823 -1.399803
v -0.312288 0.162823 3.093792
v 1.584072 0.162823 3.093793
v -0.312288 1.473157 3.093792
v -0.265149 1.473157 3.436195
v -0.504816 1.473157 -3.436195
v -0.504816 0.068429 -3.436195
v -0.930925 1.473157 -1.399803
v -0.366036 1.473157 -3.127615

# UV coordinates
vt 0.555729 0.126431
vt 0.626179 0.126220
vt 0.626224 0.143446
vt 0.555771 0.143657
vt 0.920719 0.965354
vt 0.895466 0.965354
vt 0.928952 0.850450
vt 0.967708 0.850450
vt 0.627120 0.517120
vt 0.556667 0.517331
vt 0.556631 0.500106
vt 0.627074 0.499894
vt 0.916476 0.148832
vt 0.882990 0.033927
vt 0.908243 0.033927
vt 0.955233 0.148832
vt 0.556364 0.389765
vt 0.626814 0.389554
vt 0.627036 0.483174
vt 0.556589 0.483385
vt 0.556960 0.636707
vt 0.627399 0.636496
vt 0.627632 0.730116
vt 0.557182 0.730328
vt 0.892280 0.551613
vt 0.916248 0.551613
vt 0.555814 0.161082
vt 0.626267 0.160871
vt 0.879804 0.447669
vt 0.903772 0.447669
vt 0.628212 0.958799
vt 0.557750 0.959011
vt 0.889485 0.528842
vt 0.912327 0.528842
vt 0.877010 0.470440
vt 0.899851 0.470440
vt 0.628269 0.976225
vt 0.557789 0.976436
vt 0.756826 0.470440
vt 0.753691 0.447669
vt 0.712550 0.148832
vt 0.750116 0.033927
vt 0.627328 0.607756
vt 0.556892 0.607967
vt 0.328531 0.667269
vt 0.174451 0.669844
vt 0.131874 0.546996
vt 0.361305 0.543044
vt 0.170710 0.224810
vt 0.315071 0.222366
vt 0.766166 0.551613
vt 0.769301 0.528842
vt 0.555484 0.035795
vt 0.625945 0.035584
vt 0.736966 0.447669
vt 0.740887 0.470440
vt 0.685506 0.148832
vt 0.732495 0.033927
vt 0.556922 0.619987
vt 0.627355 0.619776
vt 0.697981 0.850450
vt 0.725025 0.850450
vt 0.762592 0.965354
vt 0.744970 0.965354
vt 0.749441 0.551613
vt 0.753363 0.528842
vt 0.625910 0.023564
vt 0.555452 0.023775
vt 0.740887 0.013406
vt 0.756826 0.013406
vt 0.877010 0.013406
vt 0.899851 0.013406
vt 0.889485 0.985876
vt 0.912327 0.985876
vt 0.769301 0.985876
vt 0.753363 0.985876
vt 0.336166 0.785141
vt 0.170286 0.787716
vt 0.088691 0.708492
vt 0.040489 0.585644
vt 0.454253 0.573984
vt 0.416554 0.698209
vt 0.038122 0.533024
vt 0.078373 0.210838
vt 0.162662 0.106938
vt 0.319818 0.104494
vt 0.407093 0.205901
vt 0.454867 0.526579

# vertex normals
vn 0.000000 0.000000 1.000000
vn 0.000000 1.000000 -0.000000
vn 0.000000 1.000000 0.000000
vn 0.000000 1.000000 0.000000
vn 0.000000 1.000000 0.000000
vn 0.000000 0.000000 -1.000000
vn 0.000000 -1.000000 -0.000000
vn 0.000000 -1.000000 0.000000
vn 0.000000 -1.000000 0.000000
vn 0.999942 0.000000 0.010806
vn 0.925595 -0.000000 -0.378516
vn 0.925595 -0.000000 -0.378516
vn -0.925595 0.000000 -0.378516
vn -0.999942 0.000000 0.010806
vn 0.000000 1.000000 -0.000000
vn 0.000000 1.000000 0.000000
vn 0.985495 0.000000 0.169705
vn 0.000000 -1.000000 -0.000000
vn -0.985495 0.000000 0.169704
vn -0.985495 0.000000 0.169705
vn 0.000000 1.000000 -0.000001
vn 0.000000 1.000000 -0.000000
vn 0.985495 0.000000 0.169705
vn -0.985495 0.000000 0.169704
vn 0.000000 -1.000000 -0.000000
vn 0.000000 -1.000000 -0.000000
vn 0.000000 -1.000000 -0.000000
vn 0.000000 -1.000000 -0.000000
vn 0.000000 1.000000 0.000000
vn 0.000000 1.000000 0.000000
vn 0.000000 1.000000 0.000000
vn 0.000000 1.000000 -0.000000
vn 0.000000 1.000000 -0.000000
vn 0.000000 1.000000 -0.000000
vn 0.000000 1.000000 -0.000001
vn 0.000000 -1.000000 -0.000000
vn 0.000000 -1.000000 -0.000000
vn 0.000000 -1.000000 -0.000000
vn 0.000000 -1.000000 -0.000000
vn 0.000000 1.000000 0.000000
vn 0.000000 1.000000 0.000000
vn 0.000000 1.000000 0.000000
vn 0.000000 1.000000 -0.000000
vn 0.000000 1.000000 -0.000000
vn 0.000000 -1.000000 0.000000
vn 0.000000 -1.000000 0.000000
vn 0.000000 -1.000000 0.000000
vn 0.925594 -0.000000 -0.378517
vn 0.000000 1.000000 0.000000
vn 0.000000 1.000000 -0.000000
vn 0.000000 1.000000 0.000000
vn 0.000000 1.000000 0.000000
vn -0.925595 0.000000 -0.378516
vn 0.950491 0.000000 0.310752
vn 0.999963 0.000000 -0.008639
vn 0.999963 0.000000 -0.008639
vn -0.999970 -0.000000 -0.007701
vn -0.960063 -0.000000 0.279785
vn -0.999970 -0.000000 -0.007700
vn 0.990656 0.000000 -0.136384
vn -0.992555 0.000000 -0.121802

# Mesh
g coffin
usemtl lambert3
f 4/4/1 1/1/1 2/2/1
f 2/2/1 3/3/1 4/4/1
f 8/8/5 5/5/2 6/6/3
f 6/6/3 7/7/4 8/8/5
f 12/12/6 9/9/6 10/10/6
f 10/10/6 11/11/6 12/12/6
f 16/16/9 13/13/7 14/14/8
f 14/14/8 15/15/9 16/16/9
f 5/20/12 8/17/10 16/18/10
f 16/18/10 15/19/11 5/20/12
f 20/24/14 17/21/13 18/22/13
f 18/22/13 19/23/14 20/24/14
f 8/8/5 7/7/4 21/25/15
f 21/25/15 22/26/16 8/8/5
f 8/17/10 22/27/17 23/28/17
f 23/28/17 16/18/10 8/17/10
f 23/30/9 24/29/18 13/13/7
f 13/13/7 16/16/9 23/30/9
f 26/32/20 20/24/14 19/23/14
f 19/23/14 25/31/19 26/32/20
f 22/26/16 21/25/15 1/33/21
f 1/33/21 4/34/22 22/26/16
f 4/4/23 3/3/23 23/28/17
f 23/28/17 22/27/17 4/4/23
f 3/36/9 2/35/9 24/29/18
f 24/29/18 23/30/9 3/36/9
f 28/38/24 26/32/20 25/31/19
f 25/31/19 27/37/24 28/38/24
f 2/35/9 29/39/25 30/40/26
f 30/40/26 24/29/18 2/35/9
f 24/29/18 30/40/26 31/41/27
f 31/41/27 13/13/7 24/29/18
f 13/13/7 31/41/27 32/42/28
f 32/42/28 14/14/8 13/13/7
f 9/9/6 33/43/6 34/44/6
f 34/44/6 10/10/6 9/9/6
f 38/48/31 35/45/29 36/46/29
f 36/46/29 37/47/30 38/48/31
f 38/48/31 37/47/30 39/49/32
f 39/49/32 40/50/33 38/48/31
f 21/25/15 41/51/34 42/52/35
f 42/52/35 1/33/21 21/25/15
f 1/1/1 42/53/1 29/54/1
f 29/54/1 2/2/1 1/1/1
f 27/56/37 25/55/36 30/40/26
f 30/40/26 29/39/25 27/56/37
f 25/55/36 19/57/38 31/41/27
f 31/41/27 30/40/26 25/55/36
f 19/57/38 18/58/39 32/42/28
f 32/42/28 31/41/27 19/57/38
f 44/60/6 43/59/6 34/44/6
f 34/44/6 33/43/6 44/60/6
f 17/64/42 20/61/40 45/62/40
f 45/62/40 46/63/41 17/64/42
f 20/61/40 26/65/43 41/51/34
f 41/51/34 45/62/40 20/61/40
f 26/65/43 28/66/44 42/52/35
f 42/52/35 41/51/34 26/65/43
f 28/68/1 27/67/1 29/54/1
f 29/54/1 42/53/1 28/68/1
f 18/58/39 44/69/45 33/70/46
f 33/70/46 32/42/28 18/58/39
f 9/71/47 14/14/8 32/42/28
f 32/42/28 33/70/46 9/71/47
f 12/72/9 15/15/9 14/14/8
f 14/14/8 9/71/47 12/72/9
f 11/11/48 5/20/12 15/19/11
f 15/19/11 12/12/48 11/11/48
f 11/74/50 10/73/49 6/6/3
f 6/6/3 5/5/2 11/74/50
f 10/73/49 34/75/51 46/63/41
f 46/63/41 6/6/3 10/73/49
f 43/76/52 17/64/42 46/63/41
f 46/63/41 34/75/51 43/76/52
f 43/59/53 44/60/53 18/22/13
f 18/22/13 17/21/13 43/59/53
f 35/45/1 6/77/1 46/78/1
f 46/78/1 36/46/1 35/45/1
f 36/46/54 46/79/54 45/80/55
f 45/80/55 37/47/56 36/46/54
f 38/48/59 7/81/57 6/82/58
f 6/82/58 35/45/58 38/48/59
f 37/47/56 45/83/55 41/84/60
f 41/84/60 39/49/60 37/47/56
f 39/49/6 41/85/6 21/86/6
f 21/86/6 40/50/6 39/49/6
f 40/50/61 21/87/61 7/88/57
f 7/88/57 38/48/59 40/50/61
